<?xml version="1.0" standalone="no"?> 
<!DOCTYPE svg PUBLIC "-//W3C//DTD SVG 1.1//EN" "http://www.w3.org/Graphics/SVG/1.1/DTD/svg11.dtd" >
<svg xmlns="http://www.w3.org/2000/svg">
<defs>
  <font id="tumblr-icons" horiz-adv-x="1000">
    <font-face font-family="tumblr-icons"
      units-per-em="1000" ascent="835"
      descent="165" />
    <missing-glyph horiz-adv-x="0" />
    <glyph glyph-name="activity"
      unicode="&#xEA01;"
      horiz-adv-x="595.8333333333334" d=" M166.6666666666667 -52.5000000000005C162.499999999999 -52.5000000000005 158.3333333333338 -48.3333333333328 158.3333333333338 -48.3333333333328C133.3333333333329 -35.8333333333323 120.8333333333348 -10.8333333333337 129.1666666666676 14.1666666666672L220.8333333333338 255.8333333333343H75.0000000000005C70.8333333333329 255.8333333333343 62.5 255.8333333333343 58.3333333333348 260.000000000002C41.666666666669 264.1666666666696 33.3333333333338 272.5000000000024 25.0000000000009 285.0000000000029C16.6666666666681 301.6666666666686 16.6666666666681 326.6666666666696 33.3333333333338 343.3333333333353L391.6666666666681 739.1666666666686C404.1666666666686 755.8333333333343 429.1666666666672 764.1666666666695 450.0000000000005 755.8333333333343C454.166666666668 755.8333333333343 458.3333333333333 751.6666666666666 458.3333333333333 751.6666666666666C483.3333333333343 739.1666666666662 495.8333333333323 714.1666666666677 487.4999999999995 689.1666666666667L395.8333333333333 468.3333333333329H541.6666666666666C545.8333333333343 468.3333333333329 554.1666666666671 468.3333333333329 558.3333333333323 464.1666666666653C574.9999999999981 459.9999999999977 583.3333333333333 443.333333333332 587.4999999999985 430.8333333333315C595.8333333333314 414.1666666666657 595.8333333333314 389.1666666666648 579.1666666666657 372.4999999999991L220.8333333333315 -31.6666666666671C212.4999999999986 -44.1666666666675 195.8333333333305 -52.5000000000005 179.1666666666648 -52.5000000000005C179.1666666666648 -56.6666666666657 170.8333333333319 -56.6666666666657 166.6666666666667 -52.5000000000005z" />
    <glyph glyph-name="airplane"
      unicode="&#xEA02;"
      horiz-adv-x="1000" d=" M250.0099395833333 43.3432750000001L382.0911725 254.3815833333334L553.9217749999999 294.2142833333334C573.713125 300.1308541666667 573.713125 328.172075 553.9217749999999 334.1303166666667L382.0911725 373.9630166666667L250.0099395833333 585.0013254166668L791.6679916666666 314.1723000000001L250.0099395833333 43.3432750000001L250.0099395833333 43.3432750000001zM828.9174 388.7127791666667L287.2593475 659.5418066666666C275.4262020833334 665.4583791666666 262.63473875 668.3333333333334 250.0099395833333 668.3333333333334C227.0936375 668.3333333333334 204.5106633333333 658.8751504166667 188.34425375 641.0421008333334C163.2196533333333 613.3758741666667 159.553045 572.4181920833333 179.3443970833334 540.7936950000001L321.2171404166667 314.1723000000001L179.3443970833334 87.5509041666668C159.553045 55.8847416666666 163.2196533333333 14.9270583333333 188.34425375 -12.7391666666666C204.5106633333333 -30.5305499999999 227.0936375 -39.9887333333332 250.0099395833333 -39.9887333333332C262.63473875 -39.9887333333332 275.4262020833334 -37.1554458333333 287.2593475 -31.1972083333333L828.9174 239.6318166666668C857.1669499999999 253.7149291666667 875 282.5894666666667 875 314.1723000000001C875 345.7134625 857.1669499999999 374.5880041666667 828.9174 388.7127791666667L828.9174 388.7127791666667z" />
    <glyph glyph-name="airplane_legacy"
      unicode="&#xEA03;"
      horiz-adv-x="1000" d=" M190.411855 746.4471670833333C157.0960725 763.98130625 118.5388470833333 734.7274570833333 125.9173591666667 697.546905L182.0660379166667 414.7748375000001C187.1275170833334 389.3594208333334 230.3158454166667 377.0264666666667 256.0056654166667 377.0264666666667L493.1333166666666 377.0264666666667C511.7595625 377.0264666666667 531.011275 349.2468458333334 531.011275 330.4408C531.011275 311.6347541666667 511.759575 296.9418041666667 493.1333291666666 296.9418041666667L234.9303791666667 296.9418041666667C209.2405591666667 296.9418041666667 187.1275170833334 284.6315458333334 182.0660379166667 259.1934166666668L125.9173591666667 -23.5786499999999C118.5388470833333 -60.7592041666666 157.0960725 -90.0130541666666 190.411855 -72.4789124999999L892.6077666666666 296.9417833333333C924.6863 313.8172583333334 924.6863 360.1509958333334 892.6077666666666 377.0264708333334L190.411855 746.4471670833333z" />
    <glyph glyph-name="analytics"
      unicode="&#xEA04;"
      horiz-adv-x="1000" d=" M875.125 535.2083333333333C855.1249999999999 511.9166666666667 824.8333333333333 501.6666666666667 791.7083333333334 501.6666666666667C795.5416666666666 501.6666666666667 773.7083333333333 500.7083333333334 759.5833333333333 505.1666666666667C746.125 509.5833333333334 733.7916666666666 513.7083333333333 723.0833333333333 522.6666666666667C699.625 542.2916666666667 684.125 571.3333333333333 683.625 604.2083333333334C683.625 604.9583333333334 683.3333333333333 605.5833333333334 683.3333333333333 606.3333333333333C683.3333333333333 638.7083333333334 697.8333333333334 667.5 720.0833333333333 687.5416666666666C739.4166666666665 704.875 763.7499999999999 710 791.7499999999999 710C852.2083333333333 710 902.0833333333331 666.7916666666667 902.0833333333331 606.3333333333333C902.1249999999998 578.9583333333334 891.7083333333333 554.3333333333334 875.125 535.2083333333333L875.125 535.2083333333333zM669.375 360.2916666666667C664.1666666666666 351.1250000000001 652.875 347.2916666666667 643.3333333333333 351.3750000000001L534.9583333333334 395.8750000000001L485.0833333333333 177.2083333333334C483.5833333333333 170.7083333333334 478.9583333333333 165.0000000000001 472.5416666666666 162.375C466.2499999999999 159.8750000000001 459.125 160.4583333333334 453.25 164.2500000000001L334.0416666666667 230.2500000000001L229.6666666666667 51.5416666666666L225.375 43.3333333333334L708.5 43.3333333333334C731.5416666666665 43.3333333333334 750.1666666666666 63.8333333333334 750.1666666666666 86.7916666666666L750 418.3333333333334L833.3333333333333 418.3333333333334L833.3333333333333 63.5833333333334C833.3333333333333 -5.3333333333333 779.2083333333333 -40 710.2916666666666 -40L165.375 -40C142.3333333333333 -40 125 -21.375 125 1.75L125 547.9583333333333C125 616.8333333333334 179.75 668.3333333333334 248.7083333333334 668.3333333333334L583.3333333333333 668.3333333333334L583.3333333333333 587.0416666666667L252.2083333333333 587.0416666666667C229.2083333333334 587.0416666666667 208.3333333333333 570.9166666666667 208.3333333333333 547.9583333333333L208.3333333333333 96.7083333333334L228.3333333333334 126.9166666666668L308.6666666666667 270.125C311.4583333333333 275.1666666666668 316.25 278.75 321.8333333333333 280.1666666666667C327.3333333333333 281.5416666666668 333.3333333333333 280.5416666666667 338.1666666666667 277.5416666666668L450.7499999999999 206.8333333333334L499.6666666666667 429.5000000000001C500.9583333333333 435.5000000000001 504.875 440.625 510.3333333333333 443.5C515.875 446.25 522.2083333333333 446.5000000000001 527.9166666666666 444.375L642.1666666666666 397.25L666.6666666666666 460.0833333333334L708.3333333333333 460.0833333333334L669.375 360.2916666666667L669.375 360.2916666666667zM188.3333333333333 -14.9999999999999L185.4166666666667 -19.2499999999999C185.9166666666667 -18.5 186.75 -18.2083333333333 187.1666666666667 -17.4583333333333L188.3333333333333 -14.9999999999999L188.3333333333333 -14.9999999999999z" />
    <glyph glyph-name="android"
      unicode="&#xEA05;"
      horiz-adv-x="1000" d=" M248.7083333333334 460.0260216666667C223.9583333333333 460.0260216666667 208.3333333333333 445.8301895833333 208.3333333333333 423.0618054166667L208.375 250.2737541666667C208.375 227.4267250000001 224 208.9839416666668 248.75 208.9839416666668C273.4583333333333 208.9839416666668 291.9166666666667 227.4267250000001 291.875 250.2737541666667L291.875 423.1011291666667C291.875 445.8695133333334 277.8333333333333 460.0260216666667 253.125 460.0260216666667L248.7083333333334 460.0260216666667zM656.5416666666666 693.8172733333333C658.2083333333334 696.73394 651.2083333333333 706.3172733333333 648.1666666666666 707.98394C645.0833333333333 709.5672733333333 631 708.5256066666667 629.375 705.6089400000001L597.875 649.2339400000001C571.2916666666666 660.8172733333333 551.9166666666666 667.2756066666667 520.4583333333333 667.2756066666667C489.0833333333333 667.2756066666667 466.75 663.7756066666667 440.2916666666667 652.2756066666667L408.75 708.4422733333333C407.0833333333333 711.4006066666667 395.9166666666667 709.5256066666667 392.9583333333333 707.9006066666667C389.875 706.3172733333333 381.375 696.73394 383.0416666666667 693.8172733333333L414.3333333333334 638.1506066666667C352.9166666666667 607.1506066666667 334.1817629166667 571.6110025 334.2234295833333 503.9860025L708.5723999999999 503.9860025C708.5723999999999 571.6110025 686.6249999999999 607.1089400000001 625.2916666666666 638.1089400000001L656.5416666666666 693.8172733333333zM430.3563458333333 543.7860108333334C421.9396791666666 552.0360116666667 417.0455916666666 552.1558066666666 417.0455916666666 561.2808066666666C417.0455916666666 570.3224733333334 428.1005458333334 583.591105 437.4338791666667 583.591105C446.7672125000001 583.591105 457.7804958333333 575.6497395833333 457.8221625 566.6080729166667C457.8221625 557.4830729166667 457.4315374999999 543.7860108333334 448.0565375 543.7860108333334C448.0565375 543.7860108333334 438.7730125 535.5360108333333 430.3563458333333 543.7860108333334zM583.724975 562.7555595833334C583.724975 571.8388929166667 594.9258625 584.735515 604.2175291666666 584.735515C613.5508625 584.735515 625.5035416666667 571.8388904166667 625.5035416666667 562.7555570833333C625.5452083333333 553.6305570833333 613.5508625 543.5622158333333 604.2175291666666 543.5622158333333C594.9258625 543.5205491666667 583.724975 553.6305595833334 583.724975 562.7555595833334zM332.6666666666667 184.2549666666668C332.6666666666667 158.9193291666668 350.0914116666667 125.6163541666667 376.5080783333334 125.6163541666667L418.1874625 125.6163541666667L418.1874625 43.2922458333335C418.1874625 19.5938083333334 433.0416666666667 0.2339416666666 457.6666666666666 0.2339416666666C482.4166666666666 0.2339416666666 502.5 19.5528750000001 502.5 43.2103833333333L502.5000083333333 125.6163541666667L541.5979916666666 125.6163541666667L541.5979916666666 43.2922458333335C541.5979916666666 19.6347375 557.5833333333333 0.2748708333334 582.25 0.3158C606.9583333333333 0.2748708333334 623.8148916666667 19.5528791666667 623.8148916666667 43.2922458333335L623.8148916666667 125.6163541666667L666.6463125 125.6163541666667C692.9796458333333 125.575425 708.5833333333333 158.9193333333334 708.5833333333333 184.2549666666668L708.5416666666666 460L332.6666666666667 459.91814L332.6666666666667 184.2549666666668zM793.2942708333333 460.109355C793.2942708333333 460.109355 750.4425041666666 460.0256070833333 750.4425041666666 435.9006070833334L750.4425041666666 252.8172708333334C750.4425041666666 228.6089375 765.0833333333333 209.0672750000001 789.875 209.0672750000001C814.5833333333334 209.0672750000001 833.6705916666666 228.5672750000001 833.7122583333332 252.817275L833.7122583333332 435.9006058333334C833.7122583333332 460.0672725000001 793.2942708333333 460.109355 793.2942708333333 460.109355z" />
    <glyph glyph-name="apple"
      unicode="&#xEA06;"
      horiz-adv-x="1000" d=" M699.9929249999999 357.3750000000001C695.6179249999999 330.125 699.3262583333333 301.6666666666667 710.4095916666665 276.2916666666667C724.5345916666666 243.9166666666668 750.7012583333334 216.4166666666668 787.492925 202.2916666666666C786.4095916666666 199.875 785.3679249999999 197.4583333333334 784.3262583333333 195.2083333333334C771.7012583333333 166.9583333333334 764.367925 152.2916666666666 746.8679249999999 125.2916666666666C744.5345916666666 121.6250000000001 742.0762583333333 117.9583333333334 739.5762583333334 114.1666666666666C713.7845916666665 75.7916666666667 679.1595916666665 33.625 637.242925 33.25C596.242925 32.8333333333334 585.7012583333333 60.2916666666667 530.117925 59.9583333333334C474.5345916666666 59.7083333333334 462.9512583333333 32.75 421.9512583333334 33.1666666666667C378.2012575 33.5416666666667 344.1595908333333 75.0000000000001 318.2429241666667 114.1250000000001L314.2429241666667 120.25C298.4929241666667 144.6250000000001 285.7429241666667 169.8750000000001 275.9095908333333 195.2500000000001C265.3262575 222.5000000000001 258.0345908333333 249.8333333333334 253.9512575 276.3333333333334C249.5762575 304.75 248.8679241666667 332.2083333333334 251.6595908333333 357.3750000000001C255.0762575 388.6666666666667 263.9095908333333 416.5 277.7012575 438.4166666666667C277.8262575 438.7500000000001 278.0345908333333 439.0833333333333 278.2429241666667 439.4166666666667C310.6179241666667 489.9583333333333 361.6179241666667 519.5833333333333 409.6179241666667 519.5833333333333C458.4512583333333 519.5833333333333 489.2012583333333 492.375 529.5762583333334 492.375C568.742925 492.375 592.617925 519.625 649.117925 519.625C691.7845916666666 519.625 737.0345916666666 496.0000000000001 769.242925 455.2083333333334C760.367925 450.25 752.2845916666666 444.6250000000001 745.117925 438.4166666666667C719.6179249999999 416.4583333333334 704.9095916666666 387.625 699.9929249999999 357.3750000000001L699.9929249999999 357.3750000000001zM509.8262583333333 515.5C503.1595916666666 552.4583333333334 520.2845916666666 590.4583333333334 541.0762583333333 616.0833333333334C563.9929249999999 644.3333333333334 603.1595916666666 665.9583333333333 636.7012583333333 668.3333333333334C642.3679249999999 629.7083333333334 626.7845916666666 591.9583333333334 606.242925 565.1666666666667C584.2845916666666 536.5416666666667 546.4095916666666 514.375 509.8262583333333 515.5L509.8262583333333 515.5z" />
    <glyph glyph-name="arrow_carrot_down"
      unicode="&#xEA07;"
      horiz-adv-x="1000" d=" M797.8333333333333 585L499.0833333333333 286.3333333333334L202.1666666666667 583.375L83.3333333333333 464.5416666666667L380.2916666666667 167.5L378.7083333333333 165.875L497.5416666666667 47.0833333333334L916.6666666666666 466.1666666666667L797.8333333333333 585" />
    <glyph glyph-name="arrow_carrot_left"
      unicode="&#xEA08;"
      horiz-adv-x="1000" d=" M746.25 37.1666666666667L447.5833333333334 335.8750000000001L744.6249999999999 632.8333333333334L625.7916666666666 751.6666666666666L328.75 454.7083333333333L327.125 456.2916666666667L208.3333333333333 337.4583333333333L627.4166666666666 -81.6666666666666L746.25 37.1666666666667" />
    <glyph glyph-name="arrow_carrot_right"
      unicode="&#xEA09;"
      horiz-adv-x="1000" d=" M254.1666666666676 630.8333333333343L554.1666666666671 330.8333333333348L258.3333333333329 35.0000000000006L379.1666666666652 -85.8333333333319L674.9999999999994 210.0000000000024L674.9999999999994 210.0000000000024L795.8333333333319 330.8333333333348L374.9999999999976 751.666666666669L254.1666666666676 630.8333333333343" />
    <glyph glyph-name="arrow_carrot_thin_left"
      unicode="&#xEA0A;"
      horiz-adv-x="1000" d=" M737.4999999999994 701.6666666666672C750 714.1666666666677 750 730.8333333333334 737.4999999999994 743.3333333333338C724.999999999999 755.8333333333343 704.1666666666657 768.3333333333347 691.6666666666652 780.8333333333328C683.3333333333323 789.1666666666657 666.6666666666642 797.4999999999986 654.1666666666662 780.8333333333328C575.0000000000005 701.6666666666672 312.5 430.8333333333339 237.4999999999995 355.8333333333334C220.8333333333338 339.1666666666677 220.8333333333338 326.6666666666672 237.4999999999995 309.9999999999991C316.6666666666652 230.8333333333334 583.3333333333333 -44.1666666666675 654.1666666666662 -115.0000000000004C662.499999999999 -123.3333333333332 683.3333333333323 -127.5000000000009 691.6666666666652 -115.0000000000004C704.1666666666657 -102.5 724.999999999999 -85.8333333333343 737.4999999999994 -73.3333333333337C750 -60.8333333333333 750 -48.3333333333328 737.4999999999994 -35.8333333333347C666.6666666666666 34.9999999999982 445.8333333333329 259.9999999999996 387.5000000000005 318.3333333333319C379.1666666666676 326.6666666666648 383.3333333333329 339.1666666666653 387.5000000000005 347.4999999999981C450.0000000000005 405.8333333333329 666.6666666666666 630.8333333333343 737.4999999999994 701.6666666666672z" />
    <glyph glyph-name="arrow_carrot_thin_right"
      unicode="&#xEA0B;"
      horiz-adv-x="1000" d=" M240.0287058333333 -32.4331083333334C226.7191820833333 -45.7426291666666 229.4662058333333 -63.5402499999999 240.37692 -74.4509624999999C252.56442 -86.6771541666667 272.0257295833333 -100.8917541666666 284.4066816666667 -113.2727041666666C294.7370391666667 -123.6030624999998 308.82037 -128.12985 323.7162033333333 -113.2727041666666C402.0644175 -34.9244916666665 664.2697791666666 235.6145125000001 742.076325 313.45975C758.4810875 329.8258208333334 758.9066833333334 340.8913 740.7221583333333 359.0758208333334C659.9364458333333 439.8615362500001 396.6090604166667 712.5520125 323.7162033333333 785.4448695833333C315.1656083333333 793.9954649166667 296.2459675 797.245465 284.4066820833334 785.4448695833333C270.94239625 771.94189375 251.0941820833333 756.5817745833333 237.93942 743.3883220833334C225.1715629166667 730.6591554166666 226.8352533333333 716.7692745833333 239.7191820833333 703.92403625C310.2132295833333 633.3912983333333 530.013825 408.1740375 588.3590624999999 349.8288000000001C598.1477541666666 340.0401083333334 594.1626333333334 327.1174875000001 588.01085 320.9657041666667C529.2400166666666 262.1561791666667 310.7935866666667 38.2930833333334 240.0287058333333 -32.4331083333334z" />
    <glyph glyph-name="arrow_carrot_up"
      unicode="&#xEA0C;"
      horiz-adv-x="1000" d=" M204.1666666666657 43.3333333333334L504.1666666666652 343.3333333333329L799.9999999999994 47.4999999999986L920.8333333333318 168.333333333331L624.9999999999976 464.1666666666653L624.9999999999976 464.1666666666653L504.1666666666652 584.9999999999976L83.333333333331 164.1666666666635L204.1666666666657 43.3333333333334" />
    <glyph glyph-name="arrow_filled_down"
      unicode="&#xEA0D;"
      horiz-adv-x="1000" d=" M833.3333333333333 585H166.6666666666667L500 85L833.3333333333333 585" />
    <glyph glyph-name="arrow_filled_left"
      unicode="&#xEA0E;"
      horiz-adv-x="1000" d=" M750 1.6666666666667V668.3333333333334L250 335L750 1.6666666666667" />
    <glyph glyph-name="arrow_filled_right"
      unicode="&#xEA0F;"
      horiz-adv-x="1000" d=" M250 668.3333333333334V1.6666666666667L750 335L250 668.3333333333334" />
    <glyph glyph-name="arrow_filled_up"
      unicode="&#xEA10;"
      horiz-adv-x="1000" d=" M166.6666666666667 85H833.3333333333333L500 585L166.6666666666667 85" />
    <glyph glyph-name="arrow_small_right"
      unicode="&#xEA11;"
      horiz-adv-x="1444.4444444444446" d=" M0 168.3333333333333H777.7777777777778V-165L1444.4444444444446 335L777.7777777777778 835L777.7777777777778 501.6666666666666H0V168.3333333333333" />
    <glyph glyph-name="arrow_thin_down"
      unicode="&#xEA12;"
      horiz-adv-x="1000" d=" M458.3333333333333 626.6666666666667L458.3333333333333 169.25L281.2083333333333 346.375C274.6666666666667 352.9166666666667 264.0833333333333 352.9166666666667 257.5416666666667 346.375L213.2083333333333 302.0833333333334C206.7083333333334 295.5416666666668 206.7083333333334 284.9583333333334 213.2083333333333 278.4166666666667L453.7083333333333 39.7916666666666C454.8749999999999 38.6666666666667 454.3333333333333 37.9583333333334 455.7083333333333 37.2083333333335L490.7083333333333 2.0833333333335C491.6249999999999 1.2083333333334 514.4166666666666 2 514.5 2.0833333333335L790.7916666666666 278.375C797.2916666666667 284.9166666666668 797.2916666666667 295.5 790.7916666666666 302.0416666666667L746.5 346.3333333333334C740 352.8333333333334 729.3333333333334 352.8333333333334 722.8333333333333 346.3333333333334L541.5833333333333 165.125L541.5833333333333 626.6666666666667L458.3333333333333 626.6666666666667L458.3333333333333 626.6666666666667zM502.0416666666666 125.5416666666666L500.9583333333333 126.6666666666668L503.1666666666667 126.6666666666668L502.0416666666666 125.5416666666666L502.0416666666666 125.5416666666666z" />
    <glyph glyph-name="arrow_thin_left"
      unicode="&#xEA13;"
      horiz-adv-x="1000" d=" M320.8333333333329 293.3333333333334L520.8333333333333 105.8333333333334C529.1666666666662 97.5000000000006 529.1666666666662 80.8333333333325 520.8333333333333 72.4999999999996L458.3333333333333 9.9999999999995C450.0000000000005 1.6666666666667 433.3333333333324 1.6666666666667 424.9999999999995 9.9999999999995L83.3333333333333 339.1666666666653C83.3333333333333 339.1666666666653 83.3333333333333 372.4999999999991 83.3333333333333 372.4999999999991L424.9999999999995 701.6666666666648C433.3333333333324 709.9999999999976 450.0000000000005 709.9999999999976 458.3333333333333 701.6666666666648L520.8333333333333 639.1666666666648C529.1666666666662 630.8333333333319 529.1666666666662 614.1666666666638 520.8333333333333 605.833333333331L320.8333333333329 418.333333333331H879.1666666666652C879.1666666666652 418.333333333331 916.6666666666642 380.833333333332 916.6666666666642 376.6666666666643V339.1666666666653C916.6666666666642 339.1666666666653 874.9999999999976 293.333333333331 874.9999999999976 293.333333333331H320.8333333333329z" />
    <glyph glyph-name="arrow_thin_right"
      unicode="&#xEA14;"
      horiz-adv-x="1000" d=" M208.3333333333333 293.3333333333334H666.6666666666666L491.6666666666671 114.1666666666663C483.3333333333343 105.8333333333334 483.3333333333343 97.5000000000006 491.6666666666671 89.1666666666653L537.5000000000014 43.333333333331C545.8333333333343 34.9999999999982 554.1666666666671 34.9999999999982 562.5000000000024 43.333333333331L800.0000000000018 284.9999999999982C800.0000000000018 284.9999999999982 800.0000000000018 284.9999999999982 804.1666666666695 284.9999999999982L837.5000000000033 318.3333333333319C837.5000000000033 318.3333333333319 837.5000000000033 343.3333333333329 837.5000000000033 343.3333333333329L562.5000000000024 618.3333333333338C554.1666666666695 626.6666666666667 545.8333333333367 626.6666666666667 537.5000000000014 618.3333333333338L491.6666666666671 572.4999999999995C483.3333333333343 564.1666666666667 483.3333333333343 555.8333333333338 491.6666666666671 547.4999999999986L670.8333333333343 364.1666666666663H208.3333333333333V293.3333333333334" />
    <glyph glyph-name="arrow_thin_up"
      unicode="&#xEA15;"
      horiz-adv-x="1000" d=" M541.6666666666666 1.6666666666667V460L720.8333333333337 280.8333333333329C729.1666666666666 272.5 737.4999999999994 272.5 745.8333333333347 280.8333333333329L791.666666666669 326.6666666666672C800.0000000000018 335 800.0000000000018 343.3333333333329 791.666666666669 351.6666666666681L550.0000000000018 589.1666666666677C550.0000000000018 589.1666666666677 550.0000000000018 589.1666666666677 550.0000000000018 593.3333333333353L516.6666666666681 626.666666666669C516.6666666666681 626.666666666669 491.6666666666671 626.666666666669 491.6666666666671 626.666666666669L216.6666666666662 351.6666666666681C208.3333333333333 343.3333333333353 208.3333333333333 335.0000000000024 216.6666666666662 326.6666666666672L262.5000000000005 280.8333333333329C270.8333333333333 272.5 279.1666666666662 272.5 287.5000000000014 280.8333333333329L470.8333333333338 460V1.6666666666667H541.6666666666666L541.6666666666666 1.6666666666667zM500 501.6666666666667L500 501.6666666666667L500 501.6666666666667L500 501.6666666666667L500 501.6666666666667z" />
    <glyph glyph-name="arrow_video"
      unicode="&#xEA16;"
      horiz-adv-x="1000" d=" M350.7083333333333 83.4583333333334L791.5833333333331 83.4166666666667L791.5833333333331 -40.0416666666666L125 -39.2083333333334L125 626.6666666666667L250.6666666666667 626.6666666666667L250.6666666666667 168.0000000000001L767.1666666666666 691.125C779.5833333333334 703.7083333333334 795.8333333333334 710 812.1249999999999 710C828.375 710 844.625 703.7083333333334 857.0416666666666 691.125C881.8333333333334 666 881.8333333333334 625.2916666666667 857.0416666666666 600.1666666666667L350.7083333333333 83.4583333333334z" />
    <glyph glyph-name="arrow_video_12"
      unicode="&#xEA17;"
      horiz-adv-x="1000" d=" M832.5833333333333 86.8125000000001L833.3333333333333 658.3125L667.2499999999999 667.6458333333334L667.2499999999999 275.7291666666668L205.3333333333333 730.9791666666666C177.4166666666667 758.5625 132.1666666666667 758.5625 104.25 730.9791666666666C90.3333333333333 717.2291666666667 83.3333333333333 699.1458333333334 83.3333333333333 681.1458333333334C83.3333333333333 663.0625 90.3333333333333 644.9791666666666 104.25 631.2291666666666L574.5833333333333 167.6458333333334L167.25 167.6458333333334L167.25 0.9791666666667L832.4166666666666 0.9791666666667L832.5833333333333 78.6458333333334C832.75 81.3958333333334 832.75 84.0625 832.5833333333333 86.8125000000001" />
    <glyph glyph-name="back"
      unicode="&#xEA18;"
      horiz-adv-x="833.3333333333333" d=" M83.3333333333333 268.3333333333325V43.3333333333334H0V668.3333333333334H83.3333333333333V368.3333333333339L458.3333333333333 589.1666666666677V372.5000000000014L833.3333333333333 589.1666666666677V30.8333333333353L458.3333333333333 247.5000000000015V47.500000000001L83.3333333333333 268.3333333333325z" />
    <glyph glyph-name="blog_icon"
      unicode="&#xEA19;"
      horiz-adv-x="1000" d=" M942.8571428571428 -165C942.8571428571428 -165 57.1428571428572 -165 57.1428571428572 -165C25.5714285714286 -165 0 -139.4285714285714 0 -107.8571428571429C0 -107.8571428571429 0 777.8571428571429 0 777.8571428571429C0 809.4285714285714 25.5714285714286 835 57.1428571428572 835C57.1428571428572 835 942.8571428571428 835 942.8571428571428 835C974.4285714285714 835 1000 809.4285714285714 1000 777.8571428571429C1000 777.8571428571429 1000 -107.8571428571429 1000 -107.8571428571429C1000 -139.4285714285714 974.4285714285714 -165 942.8571428571428 -165zM771.4285714285714 -107.8571428571429C771.4285714285714 -107.8571428571429 771.4285714285714 206.4285714285715 771.4285714285714 206.4285714285715C771.4285714285714 206.4285714285715 228.5714285714286 206.4285714285715 228.5714285714286 206.4285714285715C228.5714285714286 206.4285714285715 228.5714285714286 -107.8571428571429 228.5714285714286 -107.8571428571429C228.5714285714286 -107.8571428571429 771.4285714285714 -107.8571428571429 771.4285714285714 -107.8571428571429zM942.8571428571428 492.1428571428571C942.8571428571428 492.1428571428571 655.6857142857143 492.1428571428571 655.6857142857143 492.1428571428571C648.3428571428572 412.2571428571429 581.7428571428572 349.2857142857143 500 349.2857142857143C413.3714285714286 349.2857142857143 342.8571428571429 419.7714285714286 342.8571428571429 506.4285714285714C342.8571428571429 593.0857142857143 413.3714285714286 663.5714285714286 500 663.5714285714286C571.6857142857143 663.5714285714286 631.657142857143 615.0285714285715 650.4571428571428 549.2857142857142C650.4571428571428 549.2857142857142 942.8571428571428 549.2857142857142 942.8571428571428 549.2857142857142C942.8571428571428 549.2857142857142 942.8571428571428 777.8571428571429 942.8571428571428 777.8571428571429C942.8571428571428 777.8571428571429 57.1428571428572 777.8571428571429 57.1428571428572 777.8571428571429C57.1428571428572 777.8571428571429 57.1428571428572 549.2857142857142 57.1428571428572 549.2857142857142C57.1428571428572 549.2857142857142 342.8571428571429 549.2857142857142 342.8571428571429 549.2857142857142C342.8571428571429 549.2857142857142 342.8571428571429 506.4285714285714 342.8571428571429 506.4285714285714C342.8571428571429 506.4285714285714 342.8571428571429 492.1428571428571 342.8571428571429 492.1428571428571C342.8571428571429 492.1428571428571 57.1428571428572 492.1428571428571 57.1428571428572 492.1428571428571C57.1428571428572 492.1428571428571 57.1428571428572 -107.8571428571429 57.1428571428572 -107.8571428571429C57.1428571428572 -107.8571428571429 171.4285714285715 -107.8571428571429 171.4285714285715 -107.8571428571429C171.4285714285715 -107.8571428571429 171.4285714285715 235 171.4285714285715 235C171.4285714285715 250.7714285714285 184.2 263.5714285714286 200 263.5714285714286C200 263.5714285714286 800 263.5714285714286 800 263.5714285714286C815.8000000000001 263.5714285714286 828.5714285714287 250.7714285714285 828.5714285714287 235C828.5714285714287 235 828.5714285714287 -107.8571428571429 828.5714285714287 -107.8571428571429C828.5714285714287 -107.8571428571429 942.8571428571428 -107.8571428571429 942.8571428571428 -107.8571428571429C942.8571428571428 -107.8571428571429 942.8571428571428 492.1428571428571 942.8571428571428 492.1428571428571zM600 506.4285714285714C600 561.5714285714286 555.1428571428571 606.4285714285714 500 606.4285714285714C444.8571428571429 606.4285714285714 400 561.5714285714286 400 506.4285714285714C400 451.2857142857143 444.8571428571429 406.4285714285714 500 406.4285714285714C555.1428571428571 406.4285714285714 600 451.2857142857143 600 506.4285714285714z" />
    <glyph glyph-name="broken_heart_left"
      unicode="&#xEA1A;"
      horiz-adv-x="1000" d=" M494.9690874999999 731.3950195833334C499.7685291666667 726.06977625 510.3228708333333 715.8268729166666 517.1568583333333 707.5490195833333L419.1176416666666 560.49019625L517.1568583333333 423.2352941666667L419.1176416666666 276.1764708333334L566.1764666666667 119.3137250000001L517.1568583333333 -37.5490208333333C493.7856708333333 -37.5490208333333 466.0681125 -29.4293416666667 447.7572041666666 -14.6135666666667C405.3447575 19.7105250000001 188.5352541666667 199.6615708333334 82.4780583333333 373.7073916666668C5.7391791666667 499.50967375 -2.7120083333333 680.0406933333334 129.5334416666667 781.7475670833334C174.8672833333334 816.5989118333333 227.3481216666667 835 281.3418254166667 835C358.9675566666666 835 434.8195791666667 798.1978237083333 494.9690874999999 731.3950195833334L494.9690874999999 731.3950195833334z" />
    <glyph glyph-name="broken_heart_right"
      unicode="&#xEA1B;"
      horiz-adv-x="666.6666666666666" d=" M382.8738558333333 835C305.248125 835 229.3961 798.1978237083333 169.2465920833333 731.3950195833334C164.4471516666667 726.06977625 153.8928091666667 715.8268729166666 147.05882375 707.5490195833333C147.05882375 707.5490195833333 49.0196079166667 560.49019625 49.0196079166667 560.49019625L147.0588233333333 423.2352941666667L49.0196079166667 276.1764708333334L196.07843125 119.3137250000001C196.07843125 119.3137250000001 147.05882375 -37.5490208333333 147.05882375 -37.5490208333333C170.43001125 -37.5490208333333 198.14757 -29.4293416666667 216.4584783333333 -14.6135666666667C258.8709241666667 19.7105250000001 475.680425 199.6615708333334 581.737625 373.7073916666668C658.4765 499.50967375 666.9276916666666 680.0406933333334 534.6822416666666 781.7475670833334C489.3483958333333 816.5989118333333 436.8675583333333 835 382.8738558333333 835z" />
    <glyph glyph-name="btn-sticker"
      unicode="&#xEAB9;"
      horiz-adv-x="1000" d=" M969.4833333333333 258.5416666666667C990.4833333333332 224.3333333333334 982.1916666666668 178.875 944.5666666666666 153.5833333333334L558.1083333333333 -106.2916666666666C524.3583333333333 -128.9999999999999 475.65 -129.0416666666666 441.9000000000001 -106.2916666666666L55.4416666666667 153.5833333333334C17.8166666666667 178.875 9.4833333333333 224.4166666666668 30.525 258.625L457.8583333333333 -20.75C484.4833333333333 -38.1666666666666 527.15 -37.7916666666666 553.4833333333333 -20.1666666666666L969.4833333333333 258.5416666666667z M567.5458333333333 310.1583333333334C545.4208333333332 301.5750000000001 522.2125 296.2000000000001 499.0041666666667 293.2000000000001C485.0874999999999 291.3666666666667 474.0041666666666 290.7833333333334 467.0041666666667 290.7833333333334C445.7958333333333 290.7833333333334 428.5874999999999 307.8666666666667 428.5874999999999 328.9916666666668C428.5874999999999 350.0750000000001 445.7958333333333 367.1583333333334 467.0041666666667 367.1583333333334C470.8791666666667 367.1583333333334 478.7125 367.5750000000001 489.0874999999999 368.9500000000001C506.5041666666667 371.2000000000001 523.8375 375.2416666666667 539.5875 381.3250000000001C580.1708333333332 397.0333333333334 601.6291666666666 422.0333333333334 601.6291666666666 463.1166666666667C601.6291666666666 484.2 618.8375 501.325 640.0875 501.325C661.3375 501.325 678.5458333333332 484.2 678.5458333333332 463.1166666666667C678.5458333333332 386.8250000000001 635.1708333333332 336.3666666666667 567.5458333333333 310.1583333333334M381.6291666666667 391.2833333333334C357.6291666666667 380.1166666666668 329.1291666666667 390.4500000000001 317.9625 414.3666666666667C306.7958333333334 438.325 317.2125 466.825 341.2125 477.9916666666667C365.2125 489.2 393.7125 478.8666666666667 404.8791666666667 454.9083333333334C416.0458333333333 430.9916666666668 405.6291666666666 402.4916666666667 381.6291666666667 391.2833333333334M475.8375 573.4916666666667C499.8375 584.7 528.3375 574.325 539.5041666666666 550.4083333333333C550.6708333333333 526.45 540.2541666666667 497.95 516.2541666666666 486.7833333333333C492.2541666666666 475.575 463.7541666666667 485.95 452.5875 509.8666666666667C441.4208333333333 533.825 451.8374999999999 562.2833333333333 475.8375 573.4916666666667M955.3375 511.7416666666667L570.1291666666666 772.5333333333333C529.1708333333333 800.2833333333333 470.8375 800.2416666666667 429.8791666666667 772.5333333333333L44.7125 511.7416666666667C-14.9125 471.3666666666667 -14.8708333333333 389.575 44.7125 349.2416666666667L429.8791666666667 88.4083333333334C470.8375 60.6999999999999 529.1708333333333 60.6999999999999 570.1291666666666 88.4083333333334L955.3375 349.2416666666667C1014.9208333333332 389.6166666666668 1014.8791666666666 471.4083333333334 955.3375 511.7416666666667" />
    <glyph glyph-name="camera_alert"
      unicode="&#xEAB2;"
      horiz-adv-x="1142.857142857143" d=" M946.6666666666666 508.8095238095238C977.7186428571428 508.8101228571429 1005.7037476190478 527.5412995238096 1017.5418476190476 556.2481742857142C1029.3799476190477 584.955049047619 1022.7329190476192 617.9677742857143 1000.7075619047617 639.8563295238096C978.6822047619048 661.7448847619048 945.6287047619048 668.1860976190476 916.9961428571428 656.16937C888.3635857142857 644.1526423809523 869.8071285714286 616.0513780952381 870 585C870.2618428571429 542.8442514285714 904.5101047619046 508.8087104761905 946.6666666666666 508.8095238095238L946.6666666666666 508.8095238095238L946.6666666666666 508.8095238095238L946.6666666666666 508.8095238095238zM946.6666666666666 545C924.5752761904762 545 906.6666666666666 562.90861 906.6666666666666 585C906.6666666666666 607.09139 924.5752761904762 625 946.6666666666666 625C968.758057142857 625 986.6666666666666 607.09139 986.6666666666666 585C986.6666666666666 562.90861 968.758057142857 545 946.6666666666666 545L946.6666666666666 545L946.6666666666666 545L946.6666666666666 545z M975.7142857142856 -141.1904761904762L166.1904761904762 -141.1904761904762C74.1754085714286 -140.4062285714286 -0.0033420252667 -65.5898380952382 0 26.4285714285713L0 604.047619047619C0.26156722 696.2495080952381 74.9409680952381 770.9289090476191 167.1428571428572 771.1904761904761L374.7619047619048 771.1904761904761L406.1904761904762 835L747.1428571428571 835L778.5714285714287 771.6666666666666L975.7142857142856 771.6666666666666C1068.1017095238096 771.4042014285715 1142.8575142857142 696.4354171428572 1142.857142857143 604.047619047619L1142.857142857143 26.4285714285713C1142.8575142857142 -65.9592285714286 1068.1017095238096 -140.9280095238095 975.7142857142856 -141.1904761904762L975.7142857142856 -141.1904761904762L975.7142857142856 -141.1904761904762zM167.1428571428572 727.8571428571429C98.9507828571429 727.5948638095238 43.8090194285714 672.2401976190476 43.8095238095238 604.047619047619L43.8095238095238 26.4285714285713C44.0705888571429 -41.578119047619 99.1361680952381 -96.6436952380952 167.1428571428572 -96.9047619047619L976.6666666666669 -96.9047619047619C1044.6733571428572 -96.6436952380952 1099.7389333333333 -41.578119047619 1100 26.4285714285713L1100 604.047619047619C1100.000242857143 636.9666185714286 1086.8907142857145 668.5304357142857 1063.5688333333333 691.7629628571428C1040.2469523809525 714.9954895238095 1008.6330428571428 727.9837542857143 975.7142857142856 727.8571428571429L751.4285714285714 727.8571428571429L720 791.1904761904761L434.2857142857143 791.1904761904761L401.9047619047619 727.8571428571429L167.1428571428572 727.8571428571429L167.1428571428572 727.8571428571429L167.1428571428572 727.8571428571429z M575.2381380952381 25.4817142857141C693.2802619047619 24.7101809523809 800.1288904761906 95.2232095238095 845.8372619047619 204.0592476190476C891.5456380952381 312.8952857142857 867.0846 438.5550404761905 783.8885523809524 522.2984328571429C700.6925 606.0418257142857 575.1958476190476 631.3263247619047 466.0624233333334 586.3326047619048C356.9290014285715 541.3388847619048 285.7168490476191 434.9549323809524 285.7143276190477 316.9102857142857C285.7143276190477 155.9587285714285 416.1913433333334 25.4817142857141 577.1429 25.4817142857141L577.1429 25.4817142857141L575.2381380952381 25.4817142857141L575.2381380952381 25.4817142857141zM575.2381380952381 -10.7087619047619L575.2381380952381 -10.7087619047619C394.5508114285714 -9.6582380952381 248.826970952381 137.4837238095238 249.5263052380953 318.1727476190477C250.22564 498.8617742857143 397.0840871428572 644.871329047619 577.7741333333333 644.5231880952381C758.4641761904762 644.1750471428571 904.7588952380954 497.6006652380952 904.7619476190476 316.9102857142857C904.7619476190476 135.971280952381 758.0819047619048 -10.7087619047619 577.1429 -10.7087619047619L577.1429 -10.7087619047619L575.2381380952381 -10.7087619047619L575.2381380952381 -10.7087619047619z M548.0952380952381 223.571419047619L602.8571428571429 223.571419047619L602.8571428571429 172.619038095238L548.0952380952381 172.619038095238L548.0952380952381 223.571419047619L548.0952380952381 223.571419047619L548.0952380952381 223.571419047619zM599.047619047619 461.6666576190476L599.047619047619 377.8571338095238L585.7142857142858 251.6666571428571L563.3333333333334 251.6666571428571L550 377.8571338095238L550 463.5714195238095L548.0952380952381 461.6666576190476L599.047619047619 461.6666576190476z" />
    <glyph glyph-name="carousel_arrow_web"
      unicode="&#xEAB7;"
      horiz-adv-x="620" d=" M572.0000000000005 308.9999999999998C566.0000000000005 308.9999999999998 558.0000000000005 310.9999999999998 552.0000000000005 316.9999999999998L20.0000000000004 772.9999999999998C8.0000000000004 782.9999999999998 6.0000000000004 802.9999999999998 16.0000000000004 814.9999999999998C26.0000000000004 826.9999999999998 46.0000000000004 828.9999999999998 58.0000000000004 818.9999999999998L590.0000000000005 362.9999999999998C602.0000000000005 352.9999999999998 604.0000000000005 332.9999999999998 594.0000000000005 320.9999999999998C587.9999999999995 312.9999999999996 580 308.9999999999998 572.0000000000005 308.9999999999998z M40 -155C32 -155 24 -151 18 -145C8 -133 8 -113 22 -103L554 353.0000000000001C566.0000000000001 363.0000000000001 586.0000000000001 363.0000000000001 596.0000000000001 349.0000000000001C606.0000000000001 337 606.0000000000001 317 592.0000000000001 307L60.0000000000001 -149C53.9999999999998 -153.0000000000001 46.0000000000002 -155 40 -155z" />
    <glyph glyph-name="cc"
      unicode="&#xEA1C;"
      horiz-adv-x="1000" d=" M851.2499999999999 85L749.4166666666666 85L749.4166666666666 -81.6666666666666L554.9583333333334 85L148.2083333333333 85C112.375 85 83.3333333333333 112.0833333333334 83.3333333333333 145.4583333333334L83.3333333333333 649.5416666666667C83.3333333333333 682.9166666666667 112.375 710 148.2083333333333 710L851.2499999999999 710C887.125 710 916.1666666666666 682.9166666666667 916.1666666666666 649.5416666666667L916.1666666666666 145.4583333333334C916.1666666666666 112.0833333333334 887.125 85 851.2499999999999 85L851.2499999999999 85zM277.375 431.5416666666667C280.2916666666667 442.9583333333333 284.9166666666667 453.1666666666667 291.2916666666667 462.1666666666667C297.6666666666667 471.125 305.9583333333333 478.2916666666667 316.2083333333333 483.625C326.4583333333333 488.9583333333334 338.9166666666667 491.6250000000001 353.5833333333333 491.6250000000001C361.5833333333334 491.6250000000001 369.2916666666667 490.4166666666667 376.625 487.9166666666667C383.9583333333333 485.4583333333334 390.5416666666667 482.0000000000001 396.3333333333333 477.5833333333334C402.1666666666667 473.1666666666667 407 468.0416666666667 410.875 462.1666666666667C414.75 456.3333333333334 417.25 449.875 418.3333333333333 442.8333333333333L481.4583333333333 442.8333333333333C479.4999999999999 458.9583333333333 474.7916666666666 473.2916666666667 467.3333333333333 485.7916666666667C459.875 498.2916666666667 450.3749999999999 508.7083333333333 438.9166666666667 517.2083333333334C427.4166666666667 525.6666666666667 414.4166666666667 532.0833333333334 399.875 536.5C385.3333333333333 540.9583333333333 369.9166666666667 543.1666666666667 353.5833333333333 543.1666666666667C330.875 543.1666666666667 310.4583333333333 539.375 292.3333333333333 531.8333333333334C274.2083333333333 524.2916666666667 258.9166666666667 513.875 246.4583333333333 500.625C234 487.3333333333334 224.4583333333333 471.7916666666667 217.7916666666667 453.9583333333334C211.1666666666666 436.1666666666668 207.8333333333334 416.8333333333334 207.8333333333334 396.0000000000001C207.8333333333334 375.7083333333334 211.1666666666666 356.7916666666667 217.7916666666667 339.2500000000001C224.4583333333333 321.6666666666667 234 306.375 246.4583333333333 293.375C258.9166666666667 280.375 274.2083333333333 270.1666666666668 292.3333333333333 262.75C310.4583333333333 255.3333333333334 330.875 251.625 353.5833333333333 251.625C371.8333333333333 251.625 388.5833333333333 254.2083333333334 403.8333333333333 259.4166666666668C419.0416666666667 264.625 432.3333333333333 272.1666666666668 443.6666666666667 282.0416666666667C455.0416666666666 291.9583333333334 464.1666666666667 303.9166666666667 471.0833333333333 317.9583333333334C477.9999999999999 332.0000000000001 482.2916666666666 347.75 483.9583333333333 365.2083333333334L420.8333333333333 365.2083333333334C418.3333333333333 346.4583333333334 411.5 331.3333333333334 400.2916666666667 319.9166666666668C389.0833333333333 308.4583333333334 373.5 302.7500000000001 353.5833333333333 302.7500000000001C338.9166666666667 302.7500000000001 326.4583333333333 305.4166666666667 316.2083333333333 310.75C305.9583333333333 316.0833333333334 297.6666666666667 323.1666666666667 291.2916666666667 332.0000000000001C284.9166666666667 340.8333333333334 280.2916666666667 350.7916666666667 277.375 361.875C274.4583333333333 372.9166666666667 273 384.2916666666667 273 396.0000000000001C273 408.25 274.4583333333333 420.0833333333334 277.375 431.5416666666667L277.375 431.5416666666667zM585.0416666666666 431.5416666666667C587.9583333333334 442.9583333333333 592.5833333333333 453.1666666666667 598.9583333333333 462.1666666666667C605.3333333333334 471.125 613.625 478.2916666666667 623.875 483.625C634.1249999999999 488.9583333333334 646.5833333333334 491.6250000000001 661.2499999999999 491.6250000000001C669.25 491.6250000000001 676.9583333333333 490.4166666666667 684.2916666666665 487.9166666666667C691.625 485.4583333333334 698.2083333333334 482.0000000000001 704 477.5833333333334C709.8333333333334 473.1666666666667 714.6666666666666 468.0416666666667 718.5416666666666 462.1666666666667C722.4166666666666 456.3333333333334 724.9166666666666 449.875 725.9999999999999 442.8333333333333L789.125 442.8333333333333C787.1666666666666 458.9583333333333 782.4583333333333 473.2916666666667 775.0416666666666 485.7916666666667C767.5416666666666 498.2916666666667 758.0416666666666 508.7083333333333 746.5833333333333 517.2083333333334C735.0833333333333 525.6666666666667 722.0833333333333 532.0833333333334 707.5416666666667 536.5C693 540.9583333333333 677.5833333333333 543.1666666666667 661.2499999999999 543.1666666666667C638.5416666666666 543.1666666666667 618.125 539.375 600 531.8333333333334C581.875 524.2916666666667 566.5833333333334 513.875 554.125 500.625C541.6666666666666 487.3333333333334 532.125 471.7916666666667 525.4583333333334 453.9583333333334C518.8333333333333 436.1666666666668 515.5 416.8333333333334 515.5 396.0000000000001C515.5 375.7083333333334 518.8333333333333 356.7916666666667 525.4583333333334 339.2500000000001C532.125 321.6666666666667 541.6666666666666 306.375 554.125 293.375C566.5833333333334 280.375 581.875 270.1666666666668 600 262.75C618.125 255.3333333333334 638.5416666666666 251.625 661.2499999999999 251.625C679.5 251.625 696.25 254.2083333333334 711.5 259.4166666666668C726.7083333333333 264.625 740 272.1666666666668 751.3333333333333 282.0416666666667C762.7083333333333 291.9583333333334 771.8333333333334 303.9166666666667 778.75 317.9583333333334C785.6666666666667 332.0000000000001 789.9583333333333 347.75 791.6249999999999 365.2083333333334L728.5 365.2083333333334C725.9999999999999 346.4583333333334 719.1666666666667 331.3333333333334 707.9583333333333 319.9166666666668C696.75 308.4583333333334 681.1666666666666 302.7500000000001 661.2499999999999 302.7500000000001C646.5833333333334 302.7500000000001 634.1249999999999 305.4166666666667 623.875 310.75C613.625 316.0833333333334 605.3333333333334 323.1666666666667 598.9583333333333 332.0000000000001C592.5833333333333 340.8333333333334 587.9583333333334 350.7916666666667 585.0416666666666 361.875C582.125 372.9166666666667 580.6666666666666 384.2916666666667 580.6666666666666 396.0000000000001C580.6666666666666 408.25 582.125 420.0833333333334 585.0416666666666 431.5416666666667L585.0416666666666 431.5416666666667z" />
    <glyph glyph-name="checkmark"
      unicode="&#xEA1D;"
      horiz-adv-x="1000" d=" M708.3333333333333 543.3333333333334L406.25 248.7916666666668L291.6666666666667 360.7500000000001L229.1666666666667 299.6665416666667L406.25 126.6666666666668L770.8333333333333 482.249875L708.3333333333333 543.3333333333333" />
    <glyph glyph-name="close"
      unicode="&#xEA1E;"
      horiz-adv-x="1000" d=" M791.6666666666666 509.91025625L674.9102583333333 626.6666666666667L500 451.7564104166667L325.1346154166667 626.6666666666667L208.378205 509.91025625L383.2435895833334 335L208.3333333333333 160.0897416666667L325.08974375 43.3333333333334L500 218.2435916666667L674.9102583333333 43.3333333333334L791.6666666666666 160.0897416666667L616.8461541666667 335L791.6666666666666 509.91025625L791.6666666666666 509.91025625z" />
    <glyph glyph-name="close_thin"
      unicode="&#xEABA;"
      horiz-adv-x="1000" d=" M606.214925 335L977.9360791666666 706.7211554166666C1007.4031041666666 736.1881816666667 1007.2538916666666 783.5930095833334 977.92345 812.9234509166666C948.3885249999998 842.45837875 901.0446208333332 842.2595463333333 871.7211541666666 812.9360795L500 441.2149241666667L128.2788445833333 812.9360795C98.9553779166667 842.2595463333333 51.6114770833333 842.45837875 22.0765490833333 812.9234509166666C-7.2538922916667 783.5930095833334 -7.403105625 736.1881816666667 22.0639205 706.7211554166666L393.7850758333334 335L22.0639205 -36.7211541666666C-7.403105625 -66.1881833333332 -7.2538922916667 -113.5930083333333 22.0765490833333 -142.92345C51.6114770833333 -172.4583791666666 98.9553779166667 -172.2595458333334 128.2788445833333 -142.9360791666667L500 228.785075L871.7211541666666 -142.9360791666667C901.0446208333332 -172.2595458333334 948.3885249999998 -172.4583791666666 977.92345 -142.92345C1007.2538916666666 -113.5930083333333 1007.4031041666666 -66.1881833333332 977.9360791666666 -36.7211541666666L606.214925 335L606.214925 335z" />
    <glyph glyph-name="close_video_12"
      unicode="&#xEA1F;"
      horiz-adv-x="583.3333333333333" d=" M466.6666666666686 668.3333333333334L291.6666666666667 493.3333333333314L116.6666666666648 668.3333333333334H0V551.6666666666686L175.0000000000019 376.6666666666667L0 201.6666666666648V85H116.6666666666648L291.6666666666667 260.000000000002L466.6666666666686 85H583.3333333333333V201.6666666666648L408.3333333333315 376.6666666666667L583.3333333333333 551.6666666666686V668.3333333333334L466.6666666666686 668.3333333333334z" />
    <glyph glyph-name="copy"
      unicode="&#xEAB8;"
      horiz-adv-x="1043.4782608695652" d=" M391.304347826087 547.2716326086957L148.3550873913044 547.2716326086957C124.0872673913044 547.2716326086957 104.8610895652174 528.0456260869565 104.8610895652174 504.038972173913L104.8610895652174 -23.9884608695653C104.8610895652174 -47.9992913043478 124.153677826087 -67.2211217391303 148.3550873913044 -67.2211217391303L684.659043478261 -67.2211217391303C708.9268652173913 -67.2211217391303 728.1530391304348 -47.9951130434782 728.1530391304348 -23.9884608695653L728.1530391304348 204.5652173913044L413.0434782608696 204.5652173913044C401.0372882608696 204.5652173913044 391.304347826087 214.2981565217391 391.304347826087 226.304347826087L391.304347826087 547.2716326086957zM478.2608695652174 492.847012173913L478.2608695652174 313.2608695652174C478.2608695652174 301.2546782608696 487.9938086956522 291.5217391304348 500 291.5217391304348L679.7591565217392 291.5217391304348L478.2608695652174 492.847012173913zM17.9278877826087 504.1712269565218C17.9278877826087 576.0727269565218 75.9559104347826 634.3604095652174 148.3784073913044 634.3604095652174L445.3709000000001 634.3604095652174C457.4770695652174 634.3604095652174 473.9290565217391 627.7273986956521 482.6862086956522 618.9768252173913L799.7377304347825 302.1635086956522C808.2402391304348 293.6673869565217 815.1328826086956 277.1425695652174 815.1328826086956 265.4286434782608L815.1328826086956 -23.8562043478261C815.1328826086956 -95.7577043478261 757.1048608695652 -154.0453869565217 684.6823608695652 -154.0453869565217L148.3784073913044 -154.0453869565217C76.3325747826087 -154.0453869565217 17.9278877826087 -96.0720260869566 17.9278877826087 -23.8562043478261L17.9278877826087 504.1712269565218zM673.9130434782609 686.5559321739131L673.9130434782609 530.6521739130435L586.9565217391305 617.6086956521739L586.9565217391305 748.0434782608695L369.5652173913044 748.0434782608695C345.5528369565218 748.0434782608695 326.0869565217392 728.577597826087 326.0869565217392 704.5652173913044L239.1304347826087 704.5652173913044C239.1304347826087 776.6023586956521 297.5280760869565 835 369.5652173913044 835L639.4394260869566 835C645.205 835 650.7344347826087 832.7096339130435 654.8113130434782 828.6327561304348L1015.3718869565218 468.0721813043479C1019.4487652173912 463.9953034782608 1021.7391304347826 458.4658708695653 1021.7391304347826 452.7002947826087L1021.7391304347826 182.8260869565218C1021.7391304347826 111.0283304347826 963.7289652173914 52.7795739130436 892.0220478260869 52.391304347826L878.2608695652174 52.391304347826L878.2608695652174 139.3478260869565L892.0263782608696 139.3478260869565C892.0113434782609 52.391304347826 892.0113434782609 52.391304347826 891.9421652173913 52.391304347826L891.304347826087 52.391304347826L891.304347826087 139.3478260869565C915.3167260869566 139.3478260869565 934.7826086956522 158.8137086956521 934.7826086956522 182.8260869565218L934.7826086956522 400.2173913043478L804.3478260869565 400.2173913043478L717.3913043478261 487.1739130434783L873.2950608695652 487.1739130434783L673.9130434782609 686.5559321739131zM326.0869565217392 704.5652173913044L239.1304347826087 704.5652173913044L239.1304347826087 705.0963760869565L326.0869565217392 705.0943713043478L326.0869565217392 691.9565217391305L239.1304347826087 691.9565217391305L239.1304347826087 705.0963760869565C326.0869565217392 705.0942926086957 326.0869565217392 705.0942926086957 326.0869565217392 705.0891239130435L326.0869565217392 704.5652173913044z" />
    <glyph glyph-name="customize"
      unicode="&#xEA20;"
      horiz-adv-x="1000" d=" M500 397.5C465.4583333333333 397.5 437.5416666666667 369.5 437.5416666666667 335.0833333333334C437.5416666666667 300.5 465.4583333333333 272.5 500 272.5C534.4583333333333 272.5 562.5 300.4166666666668 562.5 335.0833333333334C562.5 369.5 534.5416666666666 397.5 500 397.5L500 397.5zM500 585C292.9166666666667 585 125 335.0833333333334 125 335.0833333333334C125 335.0833333333334 292.9166666666667 85 500 85C707.125 85 875 335.0833333333334 875 335.0833333333334C875 335.0833333333334 707.125 585 500 585L500 585zM500 178.8333333333334C413.6666666666667 178.8333333333334 343.75 248.75 343.75 335C343.75 421.2500000000001 413.7083333333333 491.25 500 491.25C586.1666666666666 491.25 656.25 421.2500000000001 656.25 335C656.25 248.75 586.1666666666666 178.8333333333334 500 178.8333333333334L500 178.8333333333334z" />
    <glyph glyph-name="delete"
      unicode="&#xEA21;"
      horiz-adv-x="1000" d=" M708.3333333333333 460L708.3333333333333 85C711.9878625 57.5032416666667 694.0532291666666 43.2589750000001 666.6666666666666 43.3511374999999L333.3333333333333 43.3511666666667C312.2581745833333 43.259 294.2834966666667 57.5032666666667 291.6666666666667 85L291.6666666666667 460C291.6590370833333 484.2287579166667 273.3803166666667 502.1233658333333 250 501.6666666666667C229.14420575 502.1233658333333 208.70193789625 484.2287441666667 208.3333333333333 460L208.3333333333333 62.4444291666667C208.70193789625 -3.8096541666666 268.41481625 -39.5243833333333 334.7675075 -40L666.6666666666666 -40C742.2796958333333 -39.5244083333332 792.0532458333333 -5.3165124999999 791.6666666666666 62.4444208333334L791.6666666666666 460C792.0532208333333 484.2287325 770.8044708333332 502.1233404166667 750 501.6666666666667C726.5683583333333 502.1233404166667 709.2793708333334 482.0477275 708.3333333333333 460z M375 168.3333333333334C375 168.3333291666667 374.8219808333334 126.3462375 416.6666666666667 126.6666666666668C458.5113524999999 126.9870958333334 458.5113524999999 168.3333291666667 458.5113524999999 168.3333291666667L458.5113524999999 459.9999979166666C458.9721054166666 482.13807 440.83862625 502.17783625 416.6666666666667 501.6666666666667C396.602515 502.17783625 375 481.6801966666667 375 460L375 168.3333333333334z M541.6666666666666 168.3333333333334C541.6666666666666 168.3333291666667 541.4886475 126.3462375 583.3333333333333 126.6666666666668C625.1780208333333 126.9870958333334 625.1780208333333 168.3333291666667 625.1780208333333 168.3333291666667L625.1780208333333 459.9999979166666C625.6387708333333 482.13807 607.5052929166666 502.17783625 583.3333333333333 501.6666666666667C563.2691816666667 502.17783625 541.6666666666666 481.6801966666667 541.6666666666666 460L541.6666666666666 168.3333333333334z M750.5891708333332 585C773.3979875000001 586.5182495833333 791.8365416666667 603.46323625 791.5725708333332 626.6666666666667C791.8365416666667 647.699347375 773.3979749999999 662.9346405416667 750 668.3333333333334L250 668.3333333333334C227.8453266666667 662.9346405416667 208.4638801295833 647.6993470833334 208.3333333333333 626.6666666666667C208.4638801295833 603.4632358333333 232.87447275 586.5182495833333 255.6420408333334 585L750.5891708333332 585z" />
    <glyph glyph-name="desktop"
      unicode="&#xEA22;"
      horiz-adv-x="1064.516129032258" d=" M145.1612903225807 705.9677419354839L209.6774193548387 705.9677419354839L209.6774193548387 641.4516129032259L145.1612903225807 641.4516129032259L145.1612903225807 705.9677419354839z M274.1935483870968 705.9677419354839L338.7096774193548 705.9677419354839L338.7096774193548 641.4516129032259L274.1935483870968 641.4516129032259L274.1935483870968 705.9677419354839z M403.225806451613 705.9677419354839L467.741935483871 705.9677419354839L467.741935483871 641.4516129032259L403.225806451613 641.4516129032259L403.225806451613 705.9677419354839z M955.8518161290322 835L108.633064516129 835C66.445564516129 835 32.258064516129 799.7096774193549 32.258064516129 756.1290322580645L32.258064516129 -86.1290322580645C32.258064516129 -129.6774193548388 66.445564516129 -165 108.633064516129 -165L955.8518161290322 -165C998.070564516129 -165 1032.258064516129 -129.6774193548388 1032.258064516129 -86.1290322580645L1032.258064516129 756.1290322580645C1032.258064516129 799.7096774193549 998.070564516129 835 955.8518161290322 835L955.8518161290322 835zM94.758064516129 512.4193548387098L969.758064516129 512.4193548387098L969.758064516129 -100.4838709677419L94.758064516129 -100.4838709677419L94.758064516129 512.4193548387098zM94.758064516129 770.483870967742L969.758064516129 770.483870967742L969.758064516129 576.9354838709678L94.758064516129 576.9354838709678L94.758064516129 770.483870967742z" />
    <glyph glyph-name="diamond"
      unicode="&#xEA23;"
      horiz-adv-x="1000" d=" M502.0833333333333 3.4154625000001C499.1249999999999 -0.0428708333333 459.3333333333333 1.9987958333334 458.1249999999999 3.4154625000001L83.7083333333333 419.4987958333334L83.3333333333333 460.8737958333334L280.9583333333333 660.1237958333334C286.7916666666667 665.9154625 294.75 669.1237958333334 303.0416666666667 668.1654625L655.8333333333333 668.1654625C664.125 669.1237958333334 672.0833333333333 665.9154625 677.9166666666666 660.1654625L873.6666666666666 460.5821291666667C874.4999999999999 460.3321291666667 874.4999999999999 419.4154625 874.4999999999999 419.4154625L502.0833333333333 3.4154625000001L502.0833333333333 3.4154625000001zM570.0416666666666 419.2904625L388.1666666666667 418.9987958333334L479.3333333333333 134.7487958333334L570.0416666666666 419.2904625L570.0416666666666 419.2904625zM542.0416666666666 125.7487958333335L772.7499999999999 419.6654625L635.625 419.4154625L542.0416666666666 125.7487958333335L542.0416666666666 125.7487958333335zM418.25 124.0821291666666L322.75 418.8737958333334L187.0833333333334 418.6237958333334L418.25 124.0821291666666L418.25 124.0821291666666zM284.875 574.6654625L169.875 461.8737958333334L310.4166666666667 461.5404625L284.875 574.6654625L284.875 574.6654625zM336.8333333333333 605.2071291666666L354.4166666666667 511.8321291666667L438.1666666666667 605.2071291666666L336.8333333333333 605.2071291666666L336.8333333333333 605.2071291666666zM386.875 461.3737958333333L570.4166666666666 460.9571291666667L479 583.8737958333334L386.875 461.3737958333333L386.875 461.3737958333333zM522.75 605.2071291666666L601.0416666666666 514.3737958333334L621.6666666666666 605.2071291666666L522.75 605.2071291666666L522.75 605.2071291666666zM673.3333333333333 575.3737958333334L647.4583333333333 460.7487958333334L790.5416666666666 460.4154625L673.3333333333333 575.3737958333334L673.3333333333333 575.3737958333334z" />
    <glyph glyph-name="dotdotdot"
      unicode="&#xEA24;"
      horiz-adv-x="1000" d=" M863.0966083333333 336.59372125C863.0966083333333 291.8274470833334 826.7974374999999 255.5687904166668 782.071675 255.5687904166668C737.3054 255.5687904166668 701.0467458333333 291.8274470833334 701.0467458333333 336.59372125C701.0467458333333 381.3194829166667 737.3054 417.6186518916667 782.071675 417.6186518916667C826.7974374999999 417.6186518916667 863.0966083333333 381.3194829166667 863.0966083333333 336.59372125 M579.5093499999999 336.59372125C579.5093499999999 291.8274470833334 543.2101791666666 255.5687904166668 498.4844183333333 255.5687904166668C453.7181441666667 255.5687904166668 417.4594874999999 291.8274470833334 417.4594874999999 336.59372125C417.4594874999999 381.3194829166667 453.7181441666667 417.6186518916667 498.4844183333333 417.6186518916667C543.2101791666666 417.6186518916667 579.5093499999999 381.3194829166667 579.5093499999999 336.59372125 M295.92209125 336.59372125C295.92209125 291.8274470833334 259.6229225 255.5687904166668 214.8971608333334 255.5687904166668C170.13088625 255.5687904166668 133.8722299166667 291.8274470833334 133.8722299166667 336.59372125C133.8722299166667 381.3194829166667 170.13088625 417.6186518916667 214.8971608333334 417.6186518916667C259.6229225 417.6186518916667 295.92209125 381.3194829166667 295.92209125 336.59372125" />
    <glyph glyph-name="drafts"
      unicode="&#xEA25;"
      horiz-adv-x="1000" d=" M750 126.6666666666668L833.3333333333333 126.6666666666668L833.3333333333333 209.1666666666668L750 209.1666666666668L750 126.6666666666668zM750 -40L791.6666666666666 -40C814.7083333333334 -40 833.3333333333333 -21.375 833.3333333333333 1.6666666666667L833.3333333333333 43.3333333333334L750 43.3333333333334L750 -40L750 -40zM541.6666666666666 -40L665.9166666666666 -40L665.9166666666666 43.3333333333334L541.6666666666666 43.3333333333334L541.6666666666666 -40zM333.3333333333333 -40L457.9583333333333 -40L457.9583333333333 43.3333333333334L333.3333333333333 43.3333333333334L333.3333333333333 -40zM166.6666666666667 1.6666666666667C166.6666666666667 -21.375 185.2916666666667 -40 208.3333333333333 -40L250 -40L250 43.3333333333334L166.6666666666667 43.3333333333334L166.6666666666667 1.6666666666667L166.6666666666667 1.6666666666667zM166.6666666666667 126.6666666666668L250 126.6666666666668L250 210L166.6666666666667 210L166.6666666666667 126.6666666666668zM166.6666666666667 460L250 460L250 543.3333333333334L166.6666666666667 543.3333333333334L166.6666666666667 460zM166.6666666666667 293.3333333333334L250 293.3333333333334L250 376.6666666666667L166.6666666666667 376.6666666666667L166.6666666666667 293.3333333333334zM166.6666666666667 668.3333333333334L166.6666666666667 626.6666666666667L250 626.6666666666667L250 710L208.3333333333333 710C185.2916666666667 710 166.6666666666667 691.3333333333334 166.6666666666667 668.3333333333334L166.6666666666667 668.3333333333334zM333.5416666666667 626.6666666666667L415.8333333333333 626.6666666666667L415.8333333333333 710L333.5416666666667 710L333.5416666666667 626.6666666666667zM805.5833333333333 498.9166666666666C801.2083333333333 500.4583333333334 796.5833333333333 501.6666666666667 791.6666666666666 501.6666666666667L666.6666666666666 501.6666666666667L666.6666666666666 668.3333333333334C666.6666666666666 691.3333333333334 648.0416666666666 710 625 710L500 710L500 626.6666666666667L583.3333333333333 626.6666666666667L583.3333333333333 460C583.3333333333333 436.9583333333333 601.9583333333333 418.3333333333334 625 418.3333333333334L750 418.3333333333334L750 293.3333333333334L833.3333333333333 293.3333333333334L833.3333333333333 460.0416666666667C833.3333333333333 478.0833333333333 821.7083333333333 493.0833333333334 805.5833333333333 498.9166666666666L805.5833333333333 498.9166666666666z" />
    <glyph glyph-name="drag"
      unicode="&#xEA26;"
      horiz-adv-x="1000" d=" M625 251.6666666666668L333.3333333333333 251.6666666666668L479.1666666666666 85L625 251.6666666666668zM479.1666666666666 543.3333333333334L333.3333333333333 376.6666666666667L625 376.6666666666667L479.1666666666666 543.3333333333334L479.1666666666666 543.3333333333334z" />
    <glyph glyph-name="ds-alert-filled-16"
      unicode="&#xEABD;"
      horiz-adv-x="1000" d=" M899.625 172.0625L901.625 170.4375A46.875 46.875 0 0 0 875 85H125A46.875 46.875 0 0 0 98.4375 170.5L100.3125 172.0625Q103.5625 174.5625 110.5 181.6875C119.5625 191.2500000000001 132.75 207.5 146.375 232.4375C173.4375 282.0625 203.125 367.9375 203.125 506.875A296.875 296.875 0 0 0 796.875 506.875C796.875 367.9375 826.5625 282.0625 853.625 232.5C867.25 207.4999999999999 880.5 191.25 889.5 181.6874999999999C894.0625 176.8749999999999 897.625 173.7499999999999 899.625 172.0624999999999 M470.25 13.8125A46.875 46.875 0 1 1 388.0625 -31.3124999999999A127.75 127.75 0 0 1 611.9375 -31.3124999999999A46.875 46.875 0 0 1 529.75 13.8125A34 34 0 0 0 470.2500000000001 13.8125" />
    <glyph glyph-name="ds-alert-filled-20"
      unicode="&#xEABE;"
      horiz-adv-x="1000" d=" M898.5 169.4500000000001L898.5999999999999 169.35A41.65 41.65 0 0 0 874.9999999999998 93.35H124.9999999999998A41.65 41.65 0 0 0 101.3999999999998 169.35L101.4999999999998 169.4500000000001Q101.9999999999998 169.75 103.6999999999998 171.1500000000001A150 150 0 0 1 114.2999999999998 181.25A250 250 0 0 1 150.8999999999998 233.1C178.4499999999998 283.6 208.3499999999998 370.3 208.3499999999998 510A291.65 291.65 0 1 0 791.6499999999999 510C791.6499999999999 370.3 821.5499999999998 283.55 849.0999999999998 233.1C862.8999999999997 207.75 876.3499999999999 191.1 885.6999999999997 181.25A150 150 0 0 1 898.4999999999998 169.4500000000001 M465.7 5.05A41.65 41.65 0 1 1 392.7 -35.05A122.50000000000001 122.50000000000001 0 0 1 607.35 -35.05A41.65 41.65 0 0 1 534.35 5.05A39.15 39.15 0 0 0 465.7000000000001 5.05" />
    <glyph glyph-name="ds-alert-filled-24"
      unicode="&#xEABF;"
      horiz-adv-x="1000" d=" M293.75 707.9166666666667A291.6666666666667 291.6666666666667 0 0 0 791.6666666666666 501.6666666666667C791.6666666666666 361.9583333333334 821.5416666666665 275.2083333333334 849.0833333333333 224.75C862.9166666666666 199.4166666666666 876.375 182.7916666666666 885.7499999999999 172.9166666666666A125 125 0 0 1 898.5 161.0833333333334L898.5833333333333 161.0000000000001A41.66666666666666 41.66666666666666 0 0 0 875 85H125A41.66666666666666 41.66666666666666 0 0 0 101.4166666666667 161.0000000000001L101.5416666666667 161.0833333333334L103.7083333333333 162.8333333333335C105.9166666666667 164.6666666666669 109.5833333333333 167.9583333333335 114.2916666666667 172.9166666666669C123.625 182.7916666666669 137.0833333333334 199.4166666666668 150.9583333333334 224.7500000000001C178.4166666666667 275.2083333333334 208.3333333333333 361.9583333333334 208.3333333333333 501.6666666666667A291.6666666666667 291.6666666666667 0 0 0 293.75 707.9166666666667 M463.9583333333333 -19.0833333333334A41.66666666666666 41.66666666666666 0 1 1 391.875 -60.9166666666667A125 125 0 0 1 608.1249999999999 -60.9166666666667A41.66666666666666 41.66666666666666 0 1 1 536.0416666666665 -19.0833333333334A41.66666666666666 41.66666666666666 0 0 0 463.9583333333332 -19.0833333333334" />
    <glyph glyph-name="ds-alert-minus-16"
      unicode="&#xEAC0;"
      horiz-adv-x="1000" d=" M500 710A203.75 203.75 0 0 1 296.875 506.875C296.875 354.125 264.0625 252.5 228.625 187.5L223.6875 178.75H776.4374999999999C755.3749999999999 215.25 734.6249999999999 264.8125 720.8124999999999 330.5625A46.875 46.875 0 1 0 812.5 349.875C827.8125 276.875 852.375 230.75 871.4999999999999 203.8125C881.1249999999999 190.25 889.5 181.3125 894.9374999999999 176.1875Q899.125 172.3125 900.7499999999998 171.0624999999999L901.4374999999998 170.4999999999999H901.5624999999998A46.875 46.875 0 0 0 875 85H125A46.875 46.875 0 0 0 98.375 170.4375L100.375 172.0625A125 125 0 0 1 110.5 181.6875C119.5625 191.2500000000001 132.75 207.5 146.375 232.4375C173.4375 282.0625 203.125 367.9375 203.125 506.875A297.5 297.5 0 0 0 500 803.75C589.1875 803.75 668.125 764.0625 722.0625 705.1875A46.875 46.875 0 0 0 652.9375000000001 641.875A207.49999999999997 207.49999999999997 0 0 1 500 710 M406.5625 1.0625A46.875 46.875 0 0 0 470.25 -17.4375A34 34 0 0 1 529.75 -17.4375A46.875 46.875 0 1 0 611.9374999999999 -62.5624999999999A127.68750000000001 127.68750000000001 0 0 0 388.0625 -62.5624999999999A46.875 46.875 0 0 0 406.5625 1.0625000000001 M578.125 506.875A46.875 46.875 0 0 0 625 553.75H875A46.875 46.875 0 0 0 875 460H625A46.875 46.875 0 0 0 578.125 506.875" />
    <glyph glyph-name="ds-alert-minus-20"
      unicode="&#xEAC1;"
      horiz-adv-x="1000" d=" M500 710C390.1 710 300 619.9000000000001 300 510C300 356.8 267.1 254.6500000000001 231.4 189.1999999999999L229.1 185H771.1C750.8 221.3 731.1 269.75 717.75 333.0000000000001A50 50 0 1 0 815.6 353.6500000000001C830.9000000000001 281.0500000000001 855.25 235.3 874.0999999999999 208.7500000000001C883.6 195.35 891.85 186.6000000000001 897.1499999999999 181.5500000000001Q901.1999999999998 177.8000000000001 902.7499999999998 176.65L903.3499999999998 176.15H903.4499999999998A50 50 0 0 0 875 85H125A50 50 0 0 0 97.15 176.5L97.05 176.4500000000001L96.85 176.3000000000001L96.55 176.1L98.35 177.6A100 100 0 0 1 108.25 186.9499999999999A240 240 0 0 1 143.6 237.0500000000001C170.4 286.2 200 371.55 200 510C200 675.1 334.9000000000001 810 500 810C590.1500000000001 810 669.85 769.9 724.35 710.5A50 50 0 1 0 650.65 642.9A205 205 0 0 1 500 710M125 135C97.45 176.3000000000001 97.2 176.55 97.2 176.55L97.25 176.5999999999999z M575 510A50 50 0 0 0 625 560H875A50 50 0 1 0 875 460H625A50 50 0 0 0 575 510 M409.1 21.5A41.65 41.65 0 0 0 465.7 5.05A39.2 39.2 0 0 1 534.3 5.05A41.65 41.65 0 0 0 607.3000000000001 -35.05A122.50000000000001 122.50000000000001 0 0 0 392.6500000000001 -35.05A41.65 41.65 0 0 0 409.1 21.5" />
    <glyph glyph-name="ds-alert-minus-24"
      unicode="&#xEAC2;"
      horiz-adv-x="1000" d=" M500 710C385.5 710 291.6666666666667 616.1666666666667 291.6666666666667 501.6666666666667C291.6666666666667 349.7083333333334 259.0416666666667 248.9583333333333 224.0833333333333 184.8333333333334Q219.3333333333334 176.0833333333334 214.5416666666667 168.3333333333334H785.5833333333333C763.2916666666666 205.0000000000001 740.6249999999999 256.375 725.9166666666666 326.4166666666668A41.66666666666666 41.66666666666666 0 1 0 807.4583333333334 343.5833333333335C822.9583333333334 269.8750000000001 847.7916666666666 223.1250000000001 867.2916666666666 195.5833333333335C877.125 181.7500000000001 885.7500000000001 172.5833333333335 891.4583333333333 167.2083333333335Q895.7916666666665 163.1666666666668 897.5833333333331 161.7916666666669L898.5833333333333 161.0000000000002A41.66666666666666 41.66666666666666 0 0 0 875 85H125A41.66666666666666 41.66666666666666 0 0 0 101.5416666666667 161.0833333333334L103.7083333333333 162.8333333333335C105.9166666666667 164.6666666666669 109.5833333333333 167.9583333333335 114.2916666666667 172.9166666666669C123.625 182.7916666666669 137.0833333333334 199.4166666666668 150.9583333333334 224.7500000000001C178.4166666666667 275.2083333333334 208.3333333333333 361.9583333333334 208.3333333333333 501.6666666666667C208.3333333333333 662.1666666666667 339.5 793.3333333333334 500 793.3333333333334C587.625 793.3333333333334 665.1666666666666 754.375 718.2083333333334 696.5A41.66666666666666 41.66666666666666 0 1 0 656.7916666666667 640.1666666666666A212.49999999999997 212.49999999999997 0 0 1 500 710 M409.0833333333333 -3.4999999999999A41.66666666666666 41.66666666666666 0 0 0 465.6666666666666 -19.9166666666665A39.166666666666664 39.166666666666664 0 0 1 534.3333333333333 -19.9166666666665A41.66666666666666 41.66666666666666 0 0 0 607.3333333333334 -60.0833333333331A122.49999999999999 122.49999999999999 0 0 0 392.6666666666667 -60.0833333333331A41.66666666666666 41.66666666666666 0 0 0 409.0833333333333 -3.4999999999998 M583.3333333333333 501.6666666666667A41.66666666666666 41.66666666666666 0 0 0 625 543.3333333333334H875A41.66666666666666 41.66666666666666 0 1 0 875 460H625A41.66666666666666 41.66666666666666 0 0 0 583.3333333333333 501.6666666666667" />
    <glyph glyph-name="ds-alert-outline-16"
      unicode="&#xEAC3;"
      horiz-adv-x="1000" d=" M901.625 170.4375A46.875 46.875 0 0 0 875 85H125A46.875 46.875 0 0 0 98.375 170.4375L100.375 172.0625A125 125 0 0 1 110.5 181.6875C119.5625 191.2500000000001 132.75 207.5 146.375 232.4375C173.4375 282.0625 203.125 367.9375 203.125 506.875A296.875 296.875 0 1 0 796.875 506.875C796.875 367.9375 826.5625 282.0625 853.625 232.5C867.25 207.4999999999999 880.5 191.25 889.5 181.6874999999999A125 125 0 0 1 901.625 170.4375M356.375 650.5A203.125 203.125 0 0 0 703.125 506.875C703.125 354.125 735.9375 252.5 771.375 187.5L776.3125000000001 178.75H223.6875L228.6875000000001 187.5C264 252.5 296.875 354.1875 296.875 506.875C296.875 560.75 318.25 612.4375 356.375 650.5 M470.25 13.8125A46.875 46.875 0 1 1 388.0625 -31.3124999999999A127.75 127.75 0 0 1 611.9375 -31.3124999999999A46.875 46.875 0 0 1 529.75 13.8125A34 34 0 0 0 470.2500000000001 13.8125" />
    <glyph glyph-name="ds-alert-outline-20"
      unicode="&#xEAC4;"
      horiz-adv-x="1000" d=" M500 718.35A208.35 208.35 0 0 1 291.6500000000001 510C291.6500000000001 358.0000000000001 259.05 257.25 224.1 193.1999999999999A400 400 0 0 0 214.6 176.6999999999999H785.4499999999999A400 400 0 0 0 775.95 193.1999999999999C740.95 257.25 708.35 358.05 708.35 510A208.35 208.35 0 0 1 500 718.35M898.6 169.35L898.5000000000001 169.4500000000001L896.3000000000001 171.1500000000001A150 150 0 0 0 885.7000000000002 181.25A250 250 0 0 0 849.1000000000001 233.1C821.5500000000002 283.6 791.6500000000001 370.3 791.6500000000001 510A291.65 291.65 0 0 1 208.3500000000001 510C208.3500000000001 370.3 178.4500000000001 283.55 150.9000000000001 233.1A250 250 0 0 0 114.3000000000001 181.25A150 150 0 0 0 101.5000000000001 169.4500000000001L101.4000000000001 169.35A41.65 41.65 0 0 1 125.0000000000001 93.35H875A41.65 41.65 0 0 1 898.6 169.35M409.1000000000002 21.5A41.65 41.65 0 0 0 465.7000000000001 5.05A39.2 39.2 0 0 1 534.3000000000001 5.05A41.65 41.65 0 0 0 607.3000000000001 -35.05A122.50000000000001 122.50000000000001 0 0 0 392.6500000000001 -35.05A41.65 41.65 0 0 0 409.1 21.5" />
    <glyph glyph-name="ds-alert-outline-24"
      unicode="&#xEAC5;"
      horiz-adv-x="1000" d=" M500 793.3333333333334A291.6666666666667 291.6666666666667 0 0 1 208.3333333333333 501.6666666666667C208.3333333333333 361.9583333333334 178.4583333333334 275.2083333333334 150.9166666666667 224.75A250 250 0 0 0 114.25 172.9166666666666A125 125 0 0 0 101.5416666666667 161.0833333333334L101.4166666666666 161.0000000000001A41.66666666666666 41.66666666666666 0 0 1 125 85H875A41.66666666666666 41.66666666666666 0 0 1 898.5833333333333 161.0000000000001L898.5 161.0833333333334L896.2916666666666 162.8333333333335A125 125 0 0 0 885.7083333333331 172.9166666666669A250 250 0 0 0 849.0833333333331 224.7500000000001C821.5833333333333 275.2083333333334 791.6666666666666 361.9583333333334 791.6666666666666 501.6666666666667A291.6666666666667 291.6666666666667 0 0 1 500 793.3333333333334M233.625 168.3333333333334C225.2916666666667 168.3333333333334 220.0833333333333 177.5000000000001 224.0833333333333 184.8333333333334C259.0833333333333 248.9583333333334 291.6666666666667 349.7083333333334 291.6666666666667 501.6666666666667A208.33333333333334 208.33333333333334 0 1 0 708.3333333333333 501.6666666666667C708.3333333333333 349.7083333333334 740.9583333333334 248.9583333333333 775.9166666666666 184.8333333333334C779.9166666666666 177.5000000000001 774.75 168.3333333333334 766.375 168.3333333333334z M463.9583333333333 -19.0833333333334A41.66666666666666 41.66666666666666 0 1 1 391.875 -60.9166666666667A125 125 0 0 1 608.1249999999999 -60.9166666666667A41.66666666666666 41.66666666666666 0 1 1 536.0416666666665 -19.0833333333334A41.66666666666666 41.66666666666666 0 0 0 463.9583333333332 -19.0833333333334" />
    <glyph glyph-name="ds-alert-plus-16"
      unicode="&#xEAC6;"
      horiz-adv-x="1000" d=" M500 710A203.75 203.75 0 0 1 296.875 506.875C296.875 354.125 264.0625 252.5 228.625 187.5L223.6875 178.75H775.1874999999999A375 375 0 0 0 762.2499999999999 202.5625A46.875 46.875 0 0 0 846.1249999999999 244.5C860.6249999999999 215.4375 875.6875 196.1249999999999 886.4374999999999 184.625C891.8124999999999 178.8125 896.1249999999999 174.9375 898.7499999999998 172.75Q900.6249999999998 171.0625 901.3749999999998 170.625L901.4999999999998 170.4999999999999A46.875 46.875 0 0 0 875 85H125A46.875 46.875 0 0 0 98.375 170.4375L100.375 172.0625A125 125 0 0 1 110.5 181.6875C119.5625 191.2500000000001 132.75 207.5 146.375 232.4375C173.4375 282.0625 203.125 367.9375 203.125 506.875A297.5 297.5 0 0 0 500 803.75C548.625 803.75 594.125 793.8125 639.375 768.6875A46.875 46.875 0 0 0 593.875 686.75C564.1875 703.25 534.6875 710 500 710 M796.875 631.875A46.875 46.875 0 0 1 703.125 631.875V585A31.25 31.25 0 0 0 671.875 553.75H625A46.875 46.875 0 1 1 625 460H671.875A31.25 31.25 0 0 0 703.125 428.75V381.875A46.875 46.875 0 0 1 796.875 381.875V428.75A31.25 31.25 0 0 0 828.125 460H875A46.875 46.875 0 0 1 875 553.75H828.125A31.25 31.25 0 0 0 796.875 585z M470.25 13.8125A46.875 46.875 0 1 1 388.0625 -31.3124999999999A127.68750000000001 127.68750000000001 0 0 1 611.9375 -31.3124999999999A46.875 46.875 0 1 1 529.75 13.8125A34 34 0 0 0 470.2500000000001 13.8125" />
    <glyph glyph-name="ds-alert-plus-20"
      unicode="&#xEAC7;"
      horiz-adv-x="1000" d=" M500 710C390.1 710 300 619.9000000000001 300 510C300 356.8 267.1 254.6500000000001 231.4 189.1999999999999L229.1 185H769.75A400 400 0 0 0 759.45 204.3A50 50 0 0 0 848.9000000000001 249.05C863.3000000000001 220.1999999999999 878.2 201.1999999999999 888.7 189.85A150 150 0 0 1 903.2 176.3L903.35 176.1999999999999A50 50 0 0 0 875 85H125A50 50 0 0 0 96.55 176.0999999999999L98.35 177.5999999999999A100 100 0 0 1 108.25 186.9499999999999A240 240 0 0 1 143.6 237.05C170.4 286.2 200 371.55 200 510C200 675.1 334.9000000000001 810 500 810C549.0999999999999 810 595.15 800 640.9499999999999 774.5A50 50 0 1 0 592.4 687.15C563.1999999999999 703.35 534.25 710 500 710M125 135A3300 3300 0 0 1 97.2 176.55L97.25 176.5999999999999z M800 635A50 50 0 1 1 700 635V585A25 25 0 0 0 675 560H625A50 50 0 1 1 625 460H675A25 25 0 0 0 700 435V385A50 50 0 1 1 800 385V435A25 25 0 0 0 825 460H875A50 50 0 1 1 875 560H825A25 25 0 0 0 800 585z M465.7 5.05A41.65 41.65 0 1 1 392.7 -35.05A122.50000000000001 122.50000000000001 0 0 1 607.35 -35.05A41.65 41.65 0 0 1 534.35 5.05A39.15 39.15 0 0 0 465.7000000000001 5.05" />
    <glyph glyph-name="ds-alert-plus-24"
      unicode="&#xEAC8;"
      horiz-adv-x="1000" d=" M500 710C385.5 710 291.6666666666667 616.1666666666667 291.6666666666667 501.6666666666667C291.6666666666667 349.7083333333334 259.0416666666667 248.9583333333333 224.0833333333333 184.8333333333334C220.0833333333333 177.5000000000001 225.25 168.3333333333334 233.625 168.3333333333334H761.9583333333333C771.7083333333334 168.3333333333334 777.7916666666665 179.1666666666668 773.125 187.75Q770 193.5416666666666 766.875 199.7083333333334A41.66666666666666 41.66666666666666 0 0 0 841.4583333333333 236.9583333333334A262.49999999999994 262.49999999999994 0 0 1 882.6249999999999 175.8333333333334A145.83333333333334 145.83333333333334 0 0 1 898.2499999999999 161.25L898.5416666666666 161.0416666666666A41.66666666666666 41.66666666666666 0 0 0 875 85H125A41.66666666666666 41.66666666666666 0 0 0 101.4166666666667 161.0000000000001L101.5416666666667 161.0833333333334L103.7083333333333 162.8333333333335C105.9166666666667 164.6666666666669 109.5833333333333 167.9583333333335 114.2916666666667 172.9166666666669C123.625 182.7916666666669 137.0833333333334 199.4166666666668 150.9583333333334 224.7500000000001C178.4166666666667 275.2083333333334 208.3333333333333 361.9583333333334 208.3333333333333 501.6666666666667C208.3333333333333 662.1666666666667 339.5 793.3333333333334 500 793.3333333333334C547.875 793.3333333333334 592.5 783.5833333333334 636.9166666666666 758.9166666666666A41.66666666666666 41.66666666666666 0 0 0 596.4166666666666 686.0833333333334C565.875 703.0833333333334 535.4583333333334 710 500 710 M750 668.3333333333334A41.66666666666666 41.66666666666666 0 0 0 791.6666666666666 626.6666666666667V564.1666666666667A20.83333333333333 20.83333333333333 0 0 1 812.5 543.3333333333334H875A41.66666666666666 41.66666666666666 0 1 0 875 460H812.5A20.83333333333333 20.83333333333333 0 0 1 791.6666666666666 439.1666666666667V376.6666666666667A41.66666666666666 41.66666666666666 0 1 0 708.3333333333333 376.6666666666667V439.1666666666667A20.83333333333333 20.83333333333333 0 0 1 687.5 460H625A41.66666666666666 41.66666666666666 0 1 0 625 543.3333333333334H687.5A20.83333333333333 20.83333333333333 0 0 1 708.3333333333333 564.1666666666667V626.6666666666667A41.66666666666666 41.66666666666666 0 0 0 750 668.3333333333334 M463.9583333333333 -19.0833333333334A41.66666666666666 41.66666666666666 0 1 1 391.875 -60.9166666666667A125 125 0 0 1 608.1249999999999 -60.9166666666667A41.66666666666666 41.66666666666666 0 1 1 536.0416666666665 -19.0833333333334A41.66666666666666 41.66666666666666 0 0 0 463.9583333333332 -19.0833333333334" />
    <glyph glyph-name="ds-alert-strike-16"
      unicode="&#xEAC9;"
      horiz-adv-x="1000" d=" M596.1875 685.8125A203.125 203.125 0 0 1 388.25 676.5A46.875 46.875 0 1 0 336.6875 754.8125A296.875 296.875 0 0 0 796.875 507.4374999999999C796.9375 440.9375 804.875 374.625 820.5625 310.0625A46.875 46.875 0 0 0 729.4375 287.9375A937.4999999999998 937.4999999999998 0 0 0 703.125 507.3125A203.125 203.125 0 0 1 596.1875 685.8125 M406.5625 1.0625A46.875 46.875 0 0 0 470.25 -17.4375A34 34 0 0 1 529.75 -17.4375A46.875 46.875 0 1 0 611.9374999999999 -62.5624999999999A127.68750000000001 127.68750000000001 0 0 0 388.0625 -62.5624999999999A46.875 46.875 0 0 0 406.5625 1.0625000000001 M116.5 790A46.875 46.875 0 1 1 50.1875 723.75L209.5625 564.375A250 250 0 0 1 203.125 506.4375C203.125 367.6875 173.375 281.8125 146.375 232.2500000000001C132.75 207.2500000000001 119.5 191.0000000000001 110.5 181.5000000000001A125 125 0 0 0 98.4375 170.2500000000001A46.875 46.875 0 0 1 125 84.8125H689.125L883.5 -109.5625A46.875 46.875 0 0 1 949.8125 -43.3124999999999zM595.375 178.5625L296.4375 477.4375C292.5625 340.8125 261.7500000000001 248.0625 228.6250000000001 187.3125L223.6875 178.5625z" />
    <glyph glyph-name="ds-alert-strike-20"
      unicode="&#xEACA;"
      horiz-adv-x="1000" d=" M594.7 686.15A200 200 0 0 1 390 677.05A50 50 0 0 0 335 760.55A300 300 0 0 0 800 510.55C800.0500000000001 444.3 808 378.3 823.6 313.9A50 50 0 1 0 726.4000000000001 290.3499999999999A940 940 0 0 0 700.0000000000001 510.35A200 200 0 0 1 594.7 686.15 M405.1 3.8000000000001A50 50 0 0 0 473.0000000000001 -15.8999999999999A30.800000000000004 30.800000000000004 0 0 1 527 -15.8999999999999A50 50 0 1 0 614.6500000000001 -64.0999999999998A130.8 130.8 0 0 0 385.35 -64.0999999999998A50 50 0 0 0 405.1 3.8000000000002 M118.7 795.35A50 50 0 1 1 48 724.65L206 566.5C201.8 548 199.75 528.95 199.95 509.85C199.95 371.55 170.35 286.2499999999999 143.55 237.2000000000001C130.05 212.5 117.05 196.4500000000001 108.2 187.1A100 100 0 0 0 96.5 176.25A50 50 0 0 1 124.95 85.0999999999999H687.45L881.25 -108.75A50 50 0 0 1 952 -38.05L745.9999999999999 167.9500000000002A50 50 0 0 1 741.0999999999999 172.8500000000001L300.3 613.75A50 50 0 0 1 295.2 618.85zM299.35 473.25C294.55 340.35 264.1500000000001 249.4 231.35 189.35L229.1 185.15H587.4499999999999zM96.55 176.25L96.85 176.5L97.05 176.6L97.15 176.7000000000001z" />
    <glyph glyph-name="ds-alert-strike-24"
      unicode="&#xEACB;"
      horiz-adv-x="1000" d=" M112.7916666666667 781.125A41.66666666666666 41.66666666666666 0 0 1 53.875 722.2083333333334L215.2916666666667 560.7916666666667A237.49999999999994 237.49999999999994 0 0 1 208.3333333333333 501.4583333333333C208.3333333333333 361.875 178.4583333333334 275.2083333333334 150.9166666666667 224.75A250 250 0 0 0 114.25 172.9166666666666A125 125 0 0 0 101.5416666666667 161.0833333333334L101.4166666666666 161.0000000000001A41.66666666666666 41.66666666666666 0 0 1 125 85H691.0833333333333L887.2083333333333 -111.125A41.66666666666666 41.66666666666666 0 0 1 946.125 -52.2083333333333L738 155.9166666666668L737.5833333333333 156.3333333333335L292.625 601.3333333333334L291.25 602.6666666666667zM291.5416666666667 484.5416666666667C289.1666666666667 342.0833333333334 257.7083333333333 246.5000000000001 224.0416666666667 184.8333333333334Q219.3333333333333 176.0833333333334 214.5416666666667 168.3333333333334H607.7499999999999z M490.7083333333333 709.3333333333334A208.33333333333334 208.33333333333334 0 0 0 708.3333333333333 501.6666666666667A929.1666666666664 929.1666666666664 0 0 1 734.5 283.5416666666668A41.66666666666666 41.66666666666666 0 1 1 815.4999999999999 303.2083333333334A845.8333333333334 845.8333333333334 0 0 0 791.6666666666666 501.75A291.6666666666667 291.6666666666667 0 0 1 339.5833333333333 744.7916666666666A41.66666666666666 41.66666666666666 0 0 1 385.4166666666667 675.2083333333334A208.33333333333334 208.33333333333334 0 0 0 490.7083333333334 709.375 M409.0833333333333 -3.4999999999999A41.66666666666666 41.66666666666666 0 0 0 465.6666666666666 -19.9166666666665A39.166666666666664 39.166666666666664 0 0 1 534.3333333333333 -19.9166666666665A41.66666666666666 41.66666666666666 0 0 0 607.3333333333334 -60.0833333333331A122.49999999999999 122.49999999999999 0 0 0 392.6666666666667 -60.0833333333331A41.66666666666666 41.66666666666666 0 0 0 409.0833333333333 -3.4999999999998" />
    <glyph glyph-name="ds-audio-filled-16"
      unicode="&#xEACC;"
      horiz-adv-x="1000" d=" M500 663.125A305 305 0 0 1 279.75 567.75A337.5 337.5 0 0 1 187.5 335A31.25 31.25 0 0 1 218.75 303.75H234.375A140.625 140.625 0 0 0 375 163.125V38.125A140.625 140.625 0 0 0 93.75 38.125V335C93.75 446.25 136.0625 553.3125 212.0625 632.625A398.7499999999999 398.7499999999999 0 0 0 500 756.875C608.375 756.875 711.9375 711.875 787.9375 632.625A431.25 431.25 0 0 0 906.25 335V38.125A140.625 140.625 0 0 0 625 38.125V163.125A140.625 140.625 0 0 0 765.625 303.75H781.25A31.25 31.25 0 0 1 812.5 335A337.5 337.5 0 0 1 720.25 567.75A305 305 0 0 1 500 663.125" />
    <glyph glyph-name="ds-audio-filled-20"
      unicode="&#xEACD;"
      horiz-adv-x="1000" d=" M500 660A325 325 0 0 1 176 360A23.499999999999996 23.499999999999996 0 0 1 200 335H225A150 150 0 0 0 375 185V35A150 150 0 1 0 75 35V335A424.99999999999994 424.99999999999994 0 1 0 925 335V35A150 150 0 1 0 625 35V185A150 150 0 0 0 775 335H800A23.499999999999996 23.499999999999996 0 0 1 824 360A325 325 0 0 1 500 660" />
    <glyph glyph-name="ds-audio-filled-24"
      unicode="&#xEACE;"
      horiz-adv-x="1000" d=" M500 668.3333333333334A333.33333333333326 333.33333333333326 0 0 1 166.6666666666667 335V314.1666666666668A20.83333333333333 20.83333333333333 0 0 1 187.5 293.3333333333334H250A125 125 0 0 0 375 168.3333333333334V43.3333333333334A125 125 0 0 0 250 -81.6666666666666H208.3333333333333A125 125 0 0 0 83.3333333333333 43.3333333333334V335A416.6666666666667 416.6666666666667 0 0 0 916.6666666666666 335V43.3333333333334A125 125 0 0 0 791.6666666666666 -81.6666666666666H750A125 125 0 0 0 625 43.3333333333334V168.3333333333334A125 125 0 0 0 750 293.3333333333334H812.5A20.83333333333333 20.83333333333333 0 0 1 833.3333333333333 314.1666666666668V335A333.33333333333326 333.33333333333326 0 0 1 500 668.3333333333334" />
    <glyph glyph-name="ds-audio-outline-16"
      unicode="&#xEACF;"
      horiz-adv-x="1000" d=" M500 663.125A305 305 0 0 1 279.75 567.75A337.5 337.5 0 0 1 187.5 335A31.25 31.25 0 0 1 218.75 303.75H234.375A140.625 140.625 0 0 0 375 163.125V38.125A140.625 140.625 0 0 0 93.75 38.125V335C93.75 446.25 136.0625 553.3125 212.0625 632.625A398.7499999999999 398.7499999999999 0 0 0 500 756.875C608.375 756.875 711.9375 711.875 787.9375 632.625A431.25 431.25 0 0 0 906.25 335V38.125A140.625 140.625 0 0 0 625 38.125V163.125A140.625 140.625 0 0 0 765.625 303.75H781.25A31.25 31.25 0 0 1 812.5 335A337.5 337.5 0 0 1 720.25 567.75A305 305 0 0 1 500 663.125M812.5 178.75A31.25 31.25 0 0 1 781.25 210H765.625A46.875 46.875 0 0 1 718.75 163.125V38.125A46.875 46.875 0 0 1 812.5 38.125zM187.5 178.75A31.25 31.25 0 0 0 218.75 210H234.375A46.875 46.875 0 0 0 281.25 163.125V38.125A46.875 46.875 0 0 0 187.5 38.125z" />
    <glyph glyph-name="ds-audio-outline-20"
      unicode="&#xEAD0;"
      horiz-adv-x="1000" d=" M500 660A325 325 0 0 1 176 360A23.499999999999996 23.499999999999996 0 0 1 200 335H225A150 150 0 0 0 375 185V35A150 150 0 1 0 75 35V335A424.99999999999994 424.99999999999994 0 1 0 925 335V35A150 150 0 1 0 625 35V185A150 150 0 0 0 775 335H800A23.499999999999996 23.499999999999996 0 0 1 824 360A325 325 0 0 1 500 660M825 210A25 25 0 0 1 800 235H775A50 50 0 0 1 725 185V35A50 50 0 1 1 825 35zM175 210A25 25 0 0 0 200 235H225A50 50 0 0 0 275 185V35A50 50 0 1 0 175 35z" />
    <glyph glyph-name="ds-audio-outline-24"
      unicode="&#xEAD1;"
      horiz-adv-x="1000" d=" M264.2916666666667 570.7083333333334A333.33333333333326 333.33333333333326 0 0 0 833.3333333333333 335V314.1666666666668A20.83333333333333 20.83333333333333 0 0 0 812.5 293.3333333333334H750A125 125 0 0 1 625 168.3333333333334V43.3333333333334A125 125 0 0 1 750 -81.6666666666666H791.6666666666666A125 125 0 0 1 916.6666666666666 43.3333333333334V335A416.6666666666667 416.6666666666667 0 0 1 83.3333333333333 335V43.3333333333334A125 125 0 0 1 208.3333333333333 -81.6666666666666H250A125 125 0 0 1 375 43.3333333333334V168.3333333333334A125 125 0 0 1 250 293.3333333333334H187.5A20.83333333333333 20.83333333333333 0 0 0 166.6666666666667 314.1666666666668V335A333.33333333333326 333.33333333333326 0 0 0 264.2916666666667 570.7083333333334M187.5 210A20.83333333333333 20.83333333333333 0 0 1 166.6666666666667 189.1666666666668V43.3333333333334A41.66666666666666 41.66666666666666 0 0 1 208.3333333333333 1.6666666666667H250A41.66666666666666 41.66666666666666 0 0 1 291.6666666666667 43.3333333333334V168.3333333333334A41.66666666666666 41.66666666666666 0 0 1 250 210zM833.3333333333333 189.1666666666668A20.83333333333333 20.83333333333333 0 0 1 812.5 210H750A41.66666666666666 41.66666666666666 0 0 1 708.3333333333333 168.3333333333334V43.3333333333334A41.66666666666666 41.66666666666666 0 0 1 750 1.6666666666667H791.6666666666666A41.66666666666666 41.66666666666666 0 0 1 833.3333333333333 43.3333333333334z" />
    <glyph glyph-name="ds-badge-ask-16"
      unicode="&#xEAD2;"
      horiz-adv-x="1000" d=" M446.4375 460A53.56250000000001 53.56250000000001 0 1 0 538.4375 422.6875000000001L529.25 413.4375000000001A437.49999999999994 437.49999999999994 0 0 1 493.5625 374.6875000000001C478.8125000000001 355.7500000000001 464.3125 330.5000000000001 464.3125 299.3125V293.3125A35.6875 35.6875 0 0 1 535.6875 293.3125V299.375C535.6875 307.625 539.4375 317.4999999999999 549.875 330.875C557.8125 341 566.75 350 577.0625 360.25L589.6875 372.9375A125 125 0 1 1 375 460A35.6875 35.6875 0 0 1 446.4375 460 M500 102.875A53.56250000000001 53.56250000000001 0 1 1 500 210A53.56250000000001 53.56250000000001 0 0 1 500 102.875" />
    <glyph glyph-name="ds-badge-ask-20"
      unicode="&#xEAD3;"
      horiz-adv-x="1000" d=" M435.7000000000001 485A64.30000000000001 64.30000000000001 0 1 0 546.1 440.2L535.1 429.1C521.75 415.8 505.3 399.4000000000001 492.2500000000001 382.6C474.5500000000001 359.9 457.15 329.6 457.15 292.1V285A42.85 42.85 0 1 1 542.85 285V292.1500000000001C542.85 302.0500000000001 547.35 313.85 559.85 329.9500000000001C569.35 342.1000000000001 580.1500000000001 352.9500000000001 592.5000000000001 365.25Q599.7 372.4000000000001 607.6 380.5A150 150 0 1 1 350 485A42.85 42.85 0 0 1 435.7000000000001 485 M500 56.4500000000001A64.30000000000001 64.30000000000001 0 1 1 500 184.9500000000001A64.30000000000001 64.30000000000001 0 0 1 500 56.4500000000001" />
    <glyph glyph-name="ds-badge-blaze-16"
      unicode="&#xEAD4;"
      horiz-adv-x="1000" d=" M471.875 583.3125A23.75 23.75 0 0 1 439.375 562.5625C438.125 541.1875 435.625 519.6875 429.9375 501.4375Q421.5 474.3125 406 463.9375000000001A191.24999999999997 191.24999999999997 0 0 1 312.5 298.75C312.5 214.0625 360.25 143.3125 433.75 116.3749999999999A23.75 23.75 0 0 1 465.1875 143.6249999999999A81.25 81.25 0 0 0 465.1875 173.8125C465.6875 176.625 469.4374999999999 177.25 471 174.8125C485.0624999999999 152.9375 503.375 134.6875 522.4375 119.875A23.75 23.75 0 0 1 542.25 115.5C621.625 133.375 698.125 203.4999999999999 698.125 298.75C698.125 350.8125 677.5 398.125 643.9375 432.75A23.75 23.75 0 0 1 605.8125000000001 427.3125A187.5 187.5 0 0 0 592.4375000000001 405.4375000000001A195 195 0 0 1 471.9375000000001 583.375" />
    <glyph glyph-name="ds-badge-blaze-20"
      unicode="&#xEAD5;"
      horiz-adv-x="1000" d=" M468.9 583.2A25.200000000000003 25.200000000000003 0 0 1 434.35 561.2C433.05 538.55 430.3999999999999 515.8 424.35 496.5Q415.4 467.7 399.05 456.8C338.3 420 300 356.15 300 281.7C300 191.9999999999999 350.6 116.9999999999999 428.45 88.5A25.200000000000003 25.200000000000003 0 0 1 461.75 117.4A90.00000000000003 90.00000000000003 0 0 0 461.75 149.3499999999999C462.2499999999999 152.35 466.2499999999999 153 467.8999999999999 150.4499999999999C482.8 127.25 502.1999999999999 107.9499999999999 522.4 92.25A25 25 0 0 1 543.4 87.6C627.5 106.55 708.4999999999999 180.8000000000001 708.4999999999999 281.7A203.50000000000003 203.50000000000003 0 0 1 651.0999999999999 423.7A25.200000000000003 25.200000000000003 0 0 1 610.6999999999999 417.8499999999999A200 200 0 0 0 596.55 394.7C595.4499999999999 479.1 543.45 553.1999999999999 468.9 583.1999999999999" />
    <glyph glyph-name="ds-badge-boop-16"
      unicode="&#xEAD6;"
      horiz-adv-x="1000" d=" M421.875 522.5A78.125 78.125 0 1 0 578.125 522.5A78.125 78.125 0 0 0 421.875 522.5 M250 428.75A78.125 78.125 0 1 0 406.25 428.75A78.125 78.125 0 0 0 250 428.75 M593.75 428.75A78.125 78.125 0 1 0 750 428.75A78.125 78.125 0 0 0 593.75 428.75 M449.875 351.5A131.25 131.25 0 0 1 407.625 323.25L343.125 258.75A91.24999999999999 91.24999999999999 0 0 1 449.9375 113.6249999999999Q499.625 139.8124999999999 549.5 113.5624999999999A91.18750000000001 91.18750000000001 0 0 1 656.25 258.75L591.875 323.25A130 130 0 0 1 449.9375000000001 351.5 M421.875 522.5A78.125 78.125 0 1 0 578.125 522.5A78.125 78.125 0 0 0 421.875 522.5z M250 428.75A78.125 78.125 0 1 0 406.25 428.75A78.125 78.125 0 0 0 250 428.75z M593.75 428.75A78.125 78.125 0 1 0 750 428.75A78.125 78.125 0 0 0 593.75 428.75z M449.875 351.5A131.25 131.25 0 0 1 407.625 323.25L343.125 258.75A91.24999999999999 91.24999999999999 0 0 1 449.9375 113.6249999999999Q499.625 139.8124999999999 549.5 113.5624999999999A91.18750000000001 91.18750000000001 0 0 1 656.25 258.75L591.875 323.25A130 130 0 0 1 449.9375000000001 351.5z" />
    <glyph glyph-name="ds-badge-boop-20"
      unicode="&#xEAD7;"
      horiz-adv-x="1000" d=" M421.9000000000001 506.85A78.10000000000001 78.10000000000001 0 1 0 578.1 506.85A78.10000000000001 78.10000000000001 0 0 0 421.9000000000001 506.85 M250 413.1A78.10000000000001 78.10000000000001 0 1 0 406.25 413.1A78.10000000000001 78.10000000000001 0 0 0 250 413.1 M593.75 413.1A78.15 78.15 0 1 0 750 413.1A78.15 78.15 0 0 0 593.75 413.1 M449.85 335.85A130 130 0 0 1 407.6 307.6L343.1 243.0999999999999A91.2 91.2 0 0 1 449.9 97.9999999999999Q499.6499999999999 124.1499999999999 549.4999999999999 97.8999999999999A91.15 91.15 0 0 1 656.2499999999999 243.2L591.8 307.6499999999999A130 130 0 0 1 449.8499999999999 335.8499999999999 M421.9000000000001 506.85A78.10000000000001 78.10000000000001 0 1 0 578.1 506.85A78.10000000000001 78.10000000000001 0 0 0 421.9000000000001 506.85z M250 413.1A78.10000000000001 78.10000000000001 0 1 0 406.25 413.1A78.10000000000001 78.10000000000001 0 0 0 250 413.1z M593.75 413.1A78.15 78.15 0 1 0 750 413.1A78.15 78.15 0 0 0 593.75 413.1z M449.85 335.85A130 130 0 0 1 407.6 307.6L343.1 243.0999999999999A91.2 91.2 0 0 1 449.9 97.9999999999999Q499.6499999999999 124.1499999999999 549.4999999999999 97.8999999999999A91.15 91.15 0 0 1 656.2499999999999 243.2L591.8 307.6499999999999A130 130 0 0 1 449.8499999999999 335.8499999999999z" />
    <glyph glyph-name="ds-badge-community-16"
      unicode="&#xEAD8;"
      horiz-adv-x="1000" d=" M531.25 449.5625A93.75 93.75 0 1 0 343.75 449.5625A93.75 93.75 0 0 0 531.25 449.5625 M625 355.8125A62.5 62.5 0 1 1 625 480.8125A62.5 62.5 0 0 1 625 355.8125 M266.875 207.6875C296.5 278.25 361.75 335 437.5 335S578.5 278.25 608.125 207.6875000000001C625.8750000000001 165.25 587.6875 126.6875000000001 541.6875 126.6875000000001H333.3125C287.3125 126.6875000000001 249.0625000000001 165.2500000000001 266.8750000000001 207.6875000000001 M636.875 219.8125C642.8125 205.8125 644.6875 191.875 643.4375 178.75H708.3125C731.3125 178.75 750.5625 197.6875 745.4375 220.0625C731.25 281.9375 685.25 324.5625 625 324.5625C605.5625 324.5625 587.5625 320.1875 571.6875 312.0625C600.0625 286.5 622.5 254.1875 636.9375 219.8125" />
    <glyph glyph-name="ds-badge-community-20"
      unicode="&#xEAD9;"
      horiz-adv-x="1000" d=" M547.6 485A112.5 112.5 0 1 0 322.6 485A112.5 112.5 0 0 0 547.6 485 M660.1 372.5A75 75 0 1 1 660.1 522.5A75 75 0 0 1 660.1 372.5 M230.35 194.75C265.85 279.4 344.15 347.5 435.05 347.5S604.3000000000001 279.4 639.8 194.75C661.15 143.85 615.3 97.5 560.05 97.5H310.05C254.85 97.5 209 143.85 230.3499999999999 194.75 M674.35 209.25C681.4 192.4499999999999 683.6999999999999 175.75 682.2 160H760.0500000000001C787.7 160 810.75 182.7000000000001 804.5999999999999 209.6C787.5999999999999 283.8000000000001 732.3499999999999 335 660.0999999999999 335C636.7499999999999 335 615.1999999999999 329.6500000000001 596.0999999999999 320A315 315 0 0 0 674.3499999999999 209.25" />
    <glyph glyph-name="ds-badge-cop-16"
      unicode="&#xEADA;"
      horiz-adv-x="1000" d=" M500 574.5625A56.25 56.25 0 0 1 463.875 561.25L463.625 561.0625C430.75 532.3125 385.7500000000001 512.0625 354.1875 512.0625A52.06250000000001 52.06250000000001 0 0 1 302.0625 460V314.1875C302.0625 253.8125 323.5625000000001 206.9375 358.3125000000001 171.375C392.0625000000001 136.8124999999999 437.0625 114.25 482.6875000000001 98.5A51.87499999999999 51.87499999999999 0 0 1 517.0625000000001 98.1249999999999L517.3750000000001 98.1874999999999C562.9375000000001 114.0624999999999 607.9375000000001 136.6874999999999 641.7500000000001 171.3749999999999C676.4375000000001 206.9999999999999 697.9375000000001 253.8749999999999 697.9375000000001 314.1874999999999V460A52.06250000000001 52.06250000000001 0 0 1 645.8125000000001 512.0625C614.2500000000001 512.0625 569.4375000000001 532.1875 536.4375000000001 561L536.1250000000001 561.25A56.25 56.25 0 0 1 500 574.5625" />
    <glyph glyph-name="ds-badge-cop-20"
      unicode="&#xEADB;"
      horiz-adv-x="1000" d=" M500 568.3499999999999A50 50 0 0 1 467.95 556.5L467.6999999999999 556.3C434.2 527.05 387.7 505.8 354.2 505.8A45.85000000000001 45.85000000000001 0 0 1 308.35 460V314.15C308.35 255.4500000000001 329.1500000000001 210.15 362.75 175.7500000000001C395.6 142.1 439.55 120 484.75 104.35C494.5 100.8000000000001 505.25 100.7000000000001 515.1 104L515.3 104.1C560.4499999999999 119.85 604.4 142 637.3 175.7500000000001C670.8 210.2000000000001 691.6499999999999 255.4500000000001 691.6499999999999 314.1500000000001V460A45.800000000000004 45.800000000000004 0 0 1 645.8499999999999 505.85C612.2499999999999 505.85 565.9999999999999 526.8499999999999 532.2999999999998 556.3499999999999L532.0499999999998 556.5A50 50 0 0 1 500 568.3499999999999" />
    <glyph glyph-name="ds-badge-deny-16"
      unicode="&#xEADC;"
      horiz-adv-x="1000" d=" M500 616.25A281.25 281.25 0 1 1 500 53.75A281.25 281.25 0 0 1 500 616.25M394.5 484.6875C381.0625 498.1875 382.625 520.625 399.5 529.375A218.74999999999997 218.74999999999997 0 0 0 694.375 234.5C685.6249999999999 217.625 663.125 216.0625 649.6875 229.5zM350.3125 440.5C336.8125 453.9375 314.375 452.375 305.6250000000001 435.5A218.74999999999997 218.74999999999997 0 0 1 600.5 140.625C617.375 149.3750000000001 618.9375 171.875 605.5 185.3125z" />
    <glyph glyph-name="ds-badge-deny-20"
      unicode="&#xEADD;"
      horiz-adv-x="1000" d=" M500 622.5A287.5 287.5 0 1 1 500 47.5A287.5 287.5 0 0 1 500 622.5M399.7 488.3C388.7 499.3 390.3 517.7 404.2 524.75A212.49999999999997 212.49999999999997 0 0 0 689.7 239.25C682.7 225.3000000000001 664.3000000000001 223.75 653.3000000000001 234.75zM346.7 435.3C335.7 446.3 317.3 444.7 310.25 430.8A212.49999999999997 212.49999999999997 0 0 1 595.75 145.3C609.6999999999999 152.3 611.25 170.65 600.25 181.6999999999999z" />
    </font>
</defs>
</svg>
